<svg width="101" height="99" viewBox="0 0 101 99" fill="none" xmlns="http://www.w3.org/2000/svg">
<path fill-rule="evenodd" clip-rule="evenodd" d="M93.612 98.0715H7.39102C5.5644 98.0699 3.81307 97.3438 2.52117 96.0525C1.22928 94.7612 0.502357 93.0101 0.5 91.1834V87.183C0.502357 85.3564 1.22928 83.6053 2.52117 82.3139C3.81307 81.0226 5.5644 80.2965 7.39102 80.2949H39.3889C39.6841 80.2949 39.9671 80.4121 40.1758 80.6208C40.3845 80.8295 40.5018 81.1127 40.5018 81.4078V84.7406H60.5012V81.4048C60.5012 81.2588 60.5301 81.1143 60.586 80.9794C60.642 80.8445 60.724 80.722 60.8274 80.6189C60.9307 80.5158 61.0535 80.4341 61.1885 80.3785C61.3235 80.3229 61.4681 80.2945 61.6141 80.2949H93.612C95.4383 80.2965 97.1894 81.0226 98.4809 82.3141C99.7723 83.6055 100.498 85.3566 100.5 87.183V91.1834C100.498 93.0098 99.7723 94.7609 98.4809 96.0523C97.1894 97.3437 95.4383 98.0699 93.612 98.0715V98.0715ZM7.39102 82.5177C6.15341 82.5193 4.96695 83.0116 4.09183 83.8868C3.21671 84.7619 2.72438 85.9483 2.72281 87.1859V91.1864C2.72439 92.4237 3.21684 93.6099 4.09205 94.4845C4.96725 95.3592 6.15369 95.8509 7.39102 95.8516H93.612C94.8493 95.8509 96.0358 95.3592 96.911 94.4845C97.7862 93.6099 98.2786 92.4237 98.2802 91.1864V87.1859C98.2786 85.9483 97.7863 84.7619 96.9111 83.8868C96.036 83.0116 94.8496 82.5193 93.612 82.5177H62.7241V85.8505C62.7241 86.1451 62.6072 86.4277 62.3991 86.6363C62.191 86.8449 61.9088 86.9626 61.6141 86.9634H39.3889C39.2429 86.9634 39.0983 86.9346 38.9635 86.8786C38.8286 86.8226 38.7061 86.7406 38.603 86.6372C38.4999 86.5338 38.4182 86.4111 38.3626 86.2761C38.307 86.1411 38.2786 85.9965 38.279 85.8505V82.5177H7.39102Z" fill="#F83718"/>
<path fill-rule="evenodd" clip-rule="evenodd" d="M24.3903 16.6791C22.7965 16.6797 21.2383 16.2076 19.9128 15.3224C18.5874 14.4373 17.5542 13.179 16.944 11.7066C16.3338 10.2341 16.174 8.61384 16.4848 7.05059C16.7956 5.48734 17.563 4.05143 18.69 2.92441C19.8171 1.7974 21.253 1.02993 22.8162 0.719134C24.3795 0.408334 25.9998 0.568138 27.4722 1.17835C28.9446 1.78856 30.2029 2.82174 31.0881 4.14722C31.9732 5.47269 32.4453 7.03095 32.4448 8.6248C32.4416 10.76 31.592 12.8068 30.0822 14.3166C28.5724 15.8264 26.5255 16.676 24.3903 16.6791ZM24.3903 2.79023C23.2364 2.79023 22.1084 3.13247 21.1489 3.77357C20.1894 4.41468 19.4416 5.32586 19 6.39198C18.5584 7.4581 18.4428 8.63126 18.6679 9.76305C18.8931 10.8948 19.4488 11.9344 20.2648 12.7504C21.0807 13.5664 22.1203 14.1221 23.2521 14.3472C24.3839 14.5723 25.557 14.4568 26.6232 14.0151C27.6893 13.5735 28.6005 12.8257 29.2416 11.8662C29.8827 10.9068 30.2249 9.77876 30.2249 8.6248C30.2226 7.07865 29.6069 5.59657 28.513 4.50384C27.4192 3.4111 25.9365 2.79695 24.3903 2.79617V2.79023Z" fill="#F83718"/>
<path fill-rule="evenodd" clip-rule="evenodd" d="M91.6112 82.5179H8.27789C8.13189 82.5179 7.98737 82.4891 7.85252 82.4331C7.71766 82.3771 7.59516 82.2951 7.49206 82.1917C7.38895 82.0883 7.30726 81.9657 7.25166 81.8307C7.19605 81.6957 7.16758 81.551 7.16797 81.405V34.2391C7.1719 31.2048 8.37926 28.2959 10.5251 26.1506C12.671 24.0053 15.5801 22.7988 18.6145 22.7957H81.2807C84.315 22.7996 87.2239 24.0069 89.3692 26.1527C91.5145 28.2986 92.721 31.2078 92.7241 34.2421V81.408C92.7234 81.7026 92.6058 81.9849 92.3972 82.1929C92.1885 82.401 91.9059 82.5179 91.6112 82.5179ZM9.38789 80.2951H90.5013V34.2421C90.499 31.7965 89.5265 29.4519 87.7972 27.7226C86.0679 25.9933 83.7233 25.0208 81.2777 25.0185H18.6115C16.1659 25.0208 13.8213 25.9933 12.092 27.7226C10.3628 29.4519 9.39024 31.7965 9.38789 34.2421V80.2951Z" fill="#F83718"/>
<path fill-rule="evenodd" clip-rule="evenodd" d="M77.1648 16.9759C76.0653 16.9765 74.9903 16.651 74.0758 16.0406C73.1613 15.4302 72.4484 14.5623 72.0273 13.5466C71.6061 12.531 71.4956 11.4132 71.7097 10.3348C71.9238 9.25636 72.453 8.26569 73.2303 7.48802C74.0076 6.71035 74.998 6.18063 76.0763 5.96591C77.1546 5.75119 78.2724 5.86111 79.2882 6.28173C80.3041 6.70236 81.1724 7.41476 81.7833 8.32892C82.3942 9.24308 82.7203 10.3179 82.7203 11.4174C82.7187 12.8906 82.133 14.3031 81.0915 15.3451C80.0501 16.3871 78.638 16.9736 77.1648 16.9759V16.9759ZM77.1648 8.08765C76.5056 8.08765 75.8613 8.2831 75.3132 8.64931C74.7651 9.01552 74.3379 9.536 74.0857 10.145C73.8334 10.754 73.7675 11.4241 73.8961 12.0706C74.0247 12.7171 74.342 13.3109 74.8081 13.7769C75.2742 14.243 75.8681 14.5605 76.5146 14.6891C77.161 14.8177 77.8312 14.7517 78.4402 14.4995C79.0491 14.2472 79.5696 13.82 79.9358 13.2719C80.302 12.7239 80.4975 12.0795 80.4975 11.4204C80.4995 10.9815 80.4147 10.5465 80.2481 10.1404C80.0815 9.73435 79.8363 9.36523 79.5266 9.05418C79.2169 8.74314 78.8489 8.49632 78.4436 8.32791C78.0383 8.15949 77.6037 8.07279 77.1648 8.07279V8.08765Z" fill="#F83718"/>
<path fill-rule="evenodd" clip-rule="evenodd" d="M91.6115 73.9057H8.27809C7.99326 73.891 7.72496 73.7674 7.52856 73.5606C7.33216 73.3538 7.22266 73.0795 7.22266 72.7943C7.22266 72.509 7.33216 72.2347 7.52856 72.0279C7.72496 71.8211 7.99326 71.6976 8.27809 71.6829H91.6115C91.7622 71.6751 91.913 71.698 92.0547 71.7503C92.1963 71.8027 92.3258 71.8833 92.4353 71.9873C92.5447 72.0912 92.6319 72.2164 92.6915 72.3551C92.7511 72.4938 92.7818 72.6433 92.7818 72.7943C92.7818 72.9452 92.7511 73.0947 92.6915 73.2334C92.6319 73.3721 92.5447 73.4973 92.4353 73.6012C92.3258 73.7052 92.1963 73.7858 92.0547 73.8382C91.913 73.8905 91.7622 73.9135 91.6115 73.9057V73.9057Z" fill="#F83718"/>
<path d="M36.0561 48.3506H29.3906V65.0172H36.0561V48.3506Z" fill="#F83718"/>
<path fill-rule="evenodd" clip-rule="evenodd" d="M38.2793 47.2404V65.017H44.9448V45.0176H38.2793V47.2404Z" fill="#F83718"/>
<path fill-rule="evenodd" clip-rule="evenodd" d="M56.0586 40.5725V65.0175H62.7271V38.3438H56.0586V40.5013C56.0605 40.525 56.0605 40.5488 56.0586 40.5725V40.5725Z" fill="#F83718"/>
<path fill-rule="evenodd" clip-rule="evenodd" d="M64.9453 37.2394V65.0172H71.6108V35.0195H64.9453V37.2394Z" fill="#F83718"/>
<path fill-rule="evenodd" clip-rule="evenodd" d="M47.168 44.2759V65.0172H53.8335V41.6851H47.168V44.2759Z" fill="#F83718"/>
</svg>
