<svg width="100" height="102" viewBox="0 0 100 102" fill="none" xmlns="http://www.w3.org/2000/svg">
<path fill-rule="evenodd" clip-rule="evenodd" d="M60.0947 86.315C59.8601 86.3148 59.6317 86.2404 59.442 86.1024L50.4411 79.5599L41.4403 86.1024C41.2496 86.2415 41.0196 86.3164 40.7836 86.316C40.5475 86.3156 40.3177 86.24 40.1275 86.1002C39.9373 85.9604 39.7966 85.7636 39.7258 85.5384C39.6549 85.3132 39.6577 85.0713 39.7336 84.8478L43.171 74.266L34.1702 67.7265C33.9806 67.5886 33.8395 67.3942 33.7672 67.1711C33.6948 66.9481 33.6948 66.7079 33.7672 66.4849C33.8397 66.2619 33.9808 66.0676 34.1705 65.9297C34.3601 65.7918 34.5885 65.7175 34.823 65.7174H45.9497L49.3872 55.1355C49.4601 54.9132 49.6015 54.7195 49.791 54.5822C49.9806 54.4449 50.2086 54.3711 50.4426 54.3711C50.6766 54.3711 50.9047 54.4449 51.0942 54.5822C51.2838 54.7195 51.4252 54.9132 51.4981 55.1355L54.9386 65.7174H66.0623C66.2968 65.7175 66.5252 65.7918 66.7148 65.9297C66.9044 66.0676 67.0456 66.2619 67.1181 66.4849C67.1905 66.7079 67.1905 66.9481 67.1181 67.1711C67.0457 67.3942 66.9047 67.5886 66.7151 67.7265L57.7143 74.266L61.1517 84.8478C61.2243 85.0711 61.2243 85.3116 61.1516 85.5348C61.079 85.7581 60.9375 85.9526 60.7474 86.0904C60.5597 86.2336 60.3308 86.3124 60.0947 86.315Z" fill="#F83718"/>
<path fill-rule="evenodd" clip-rule="evenodd" d="M80.0049 31.4564H21.1104C20.9435 31.4558 20.7789 31.4179 20.6286 31.3454C20.4783 31.2728 20.3462 31.1675 20.242 31.0372C20.1374 30.9064 20.0639 30.7535 20.027 30.5901C19.9902 30.4267 19.991 30.257 20.0294 30.094L26.6977 1.42671C26.7544 1.18251 26.8921 0.964724 27.0884 0.808703C27.2846 0.652681 27.5279 0.567638 27.7786 0.567391H73.3366C73.588 0.56642 73.8322 0.650931 74.0292 0.807095C74.2262 0.963258 74.3642 1.18175 74.4206 1.42671L81.0889 30.094C81.1272 30.257 81.128 30.4267 81.0912 30.5901C81.0544 30.7535 80.9808 30.9064 80.8762 31.0372C80.7714 31.1676 80.6388 31.2729 80.488 31.3454C80.3373 31.418 80.1722 31.4558 80.0049 31.4564V31.4564ZM22.5147 29.2317H78.6096L72.4593 2.78613H28.6559L22.5147 29.2317Z" fill="#F83718"/>
<path fill-rule="evenodd" clip-rule="evenodd" d="M71.9737 31.4565H29.1555C28.9928 31.456 28.8321 31.4199 28.6849 31.3506C28.5376 31.2814 28.4073 31.1807 28.3031 31.0557C28.1989 30.9307 28.1234 30.7844 28.0818 30.627C28.0403 30.4697 28.0337 30.3052 28.0626 30.145L33.2487 1.47773C33.2951 1.22107 33.4303 0.988897 33.6307 0.821924C33.8311 0.654952 34.0838 0.563811 34.3446 0.564457H66.7966C67.0573 0.564398 67.3097 0.655784 67.51 0.822655C67.7102 0.989526 67.8456 1.22133 67.8926 1.47773L73.0787 30.148C73.1071 30.3079 73.1001 30.4721 73.0583 30.6291C73.0165 30.7861 72.9409 30.932 72.8368 31.0567C72.7327 31.1813 72.6026 31.2817 72.4556 31.3508C72.3086 31.4198 72.1482 31.4559 71.9857 31.4565H71.9737ZM30.473 29.2317H70.6443L65.8534 2.78619H35.2609L30.473 29.2317Z" fill="#F83718"/>
<path fill-rule="evenodd" clip-rule="evenodd" d="M63.4811 31.4565H37.6374C37.481 31.457 37.3262 31.4245 37.1832 31.361C37.0403 31.2974 36.9124 31.2043 36.808 31.0877C36.7036 30.9712 36.6251 30.8339 36.5776 30.6848C36.5301 30.5357 36.5148 30.3783 36.5326 30.2228L39.6616 1.55558C39.6917 1.28346 39.8211 1.032 40.0249 0.849188C40.2287 0.666373 40.4927 0.564993 40.7664 0.564453H60.3521C60.6259 0.564993 60.8899 0.666373 61.0937 0.849188C61.2975 1.032 61.4268 1.28346 61.457 1.55558L64.586 30.2228C64.6033 30.3782 64.5876 30.5354 64.5399 30.6843C64.4923 30.8331 64.4137 30.9703 64.3094 31.0867C64.2052 31.2031 64.0775 31.2963 63.9347 31.36C63.792 31.4237 63.6374 31.4566 63.4811 31.4565V31.4565ZM38.874 29.2317H62.2295L59.34 2.78619H41.7486L38.874 29.2317Z" fill="#F83718"/>
<path fill-rule="evenodd" clip-rule="evenodd" d="M55.1609 31.4565H45.9594C45.8097 31.4566 45.6615 31.4265 45.5237 31.3679C45.3859 31.3092 45.2613 31.2233 45.1576 31.1154C45.0538 31.0074 44.973 30.8796 44.9198 30.7396C44.8667 30.5996 44.8425 30.4503 44.8486 30.3007L45.9624 1.63343C45.9733 1.34665 46.0947 1.07514 46.3012 0.875871C46.5077 0.676602 46.7833 0.565023 47.0703 0.564453H54.044C54.3315 0.564249 54.6078 0.675499 54.815 0.874847C55.0222 1.0742 55.144 1.34614 55.1549 1.63343L56.2687 30.3007C56.2744 30.45 56.2499 30.5988 56.1968 30.7384C56.1437 30.8781 56.0632 31.0056 55.9598 31.1134C55.8564 31.2212 55.7324 31.3072 55.5952 31.3661C55.4579 31.425 55.3102 31.4558 55.1609 31.4565V31.4565ZM47.1122 29.2317H53.999L52.972 2.78619H48.1363L47.1122 29.2317Z" fill="#F83718"/>
<path fill-rule="evenodd" clip-rule="evenodd" d="M65.718 45.6224C65.4976 45.6226 65.2821 45.5572 65.0989 45.4346C64.9158 45.312 64.7733 45.1377 64.6895 44.9339C64.6057 44.73 64.5845 44.5059 64.6285 44.2899C64.6724 44.0739 64.7796 43.8759 64.9364 43.721L77.3058 31.4445H23.81L36.0866 43.6372C36.2958 43.8449 36.414 44.1272 36.4151 44.422C36.4162 44.7168 36.3002 45 36.0926 45.2092C35.9897 45.3129 35.8675 45.3951 35.7328 45.4515C35.5982 45.5079 35.4538 45.5372 35.3078 45.5378C35.013 45.5389 34.7298 45.4228 34.5206 45.2152L20.3186 31.1211C20.1618 30.9663 20.0546 30.7683 20.0106 30.5523C19.9666 30.3363 19.9879 30.1121 20.0717 29.9083C20.1555 29.7044 20.298 29.5301 20.4811 29.4075C20.6643 29.2849 20.8798 29.2195 21.1002 29.2197H79.9917C80.2121 29.2195 80.4276 29.2849 80.6107 29.4075C80.7939 29.5301 80.9364 29.7044 81.0202 29.9083C81.104 30.1121 81.1253 30.3363 81.0813 30.5523C81.0373 30.7683 80.9301 30.9663 80.7732 31.1211L66.4994 45.323C66.2886 45.522 66.0078 45.6296 65.718 45.6224V45.6224Z" fill="#F83718"/>
<path fill-rule="evenodd" clip-rule="evenodd" d="M50.4486 101.46C44.2948 101.46 38.279 99.636 33.162 96.2176C28.045 92.7991 24.0566 87.94 21.7012 82.2548C19.3459 76.5696 18.7293 70.3136 19.9295 64.2779C21.1297 58.2423 24.0927 52.6981 28.4439 48.3465C32.7951 43.9949 38.339 41.0313 44.3745 39.8305C50.4101 38.6297 56.6661 39.2457 62.3516 41.6005C68.037 43.9554 72.8965 47.9433 76.3154 53.06C79.7344 58.1766 81.5592 64.1923 81.5592 70.3461C81.5521 78.5952 78.2722 86.5045 72.4394 92.3378C66.6067 98.1711 58.6978 101.452 50.4486 101.46V101.46ZM50.4486 41.4572C44.7341 41.4567 39.1477 43.1507 34.396 46.3252C29.6443 49.4996 25.9407 54.0118 23.7536 59.2912C21.5665 64.5706 20.9941 70.3801 22.1088 75.9849C23.2235 81.5896 25.9752 86.7379 30.016 90.7787C34.0568 94.8195 39.2051 97.5712 44.8099 98.6859C50.4146 99.8006 56.224 99.2282 61.5034 97.0411C66.7829 94.8539 71.2951 91.1503 74.4696 86.3986C77.644 81.6469 79.3381 76.0606 79.3375 70.3461C79.3288 62.687 76.2823 55.3441 70.8665 49.9282C65.4507 44.5124 58.1078 41.466 50.4486 41.4572V41.4572Z" fill="#F83718"/>
<path fill-rule="evenodd" clip-rule="evenodd" d="M72.9507 71.4572C72.8047 71.4576 72.6601 71.4291 72.5252 71.3734C72.3902 71.3178 72.2676 71.236 72.1643 71.1327C72.0611 71.0295 71.9793 70.9068 71.9236 70.7719C71.8679 70.6369 71.8394 70.4923 71.8398 70.3464C71.8327 64.6755 69.5766 59.2391 65.5665 55.2295C61.5563 51.2199 56.1195 48.9645 50.4487 48.9581C50.1637 48.9433 49.8952 48.8197 49.6987 48.6127C49.5021 48.4057 49.3926 48.1312 49.3926 47.8458C49.3926 47.5604 49.5021 47.2858 49.6987 47.0788C49.8952 46.8718 50.1637 46.7482 50.4487 46.7334C56.7078 46.7445 62.7074 49.2358 67.1333 53.6617C71.5592 58.0876 74.0505 64.0872 74.0616 70.3464C74.0608 70.6407 73.9435 70.9228 73.7354 71.131C73.5272 71.3391 73.2451 71.4564 72.9507 71.4572Z" fill="#F83718"/>
<path fill-rule="evenodd" clip-rule="evenodd" d="M93.3323 28.3453C92.0135 28.3453 90.7242 27.9542 89.6276 27.2215C88.531 26.4888 87.6764 25.4473 87.1717 24.2288C86.667 23.0104 86.5349 21.6696 86.7922 20.3761C87.0495 19.0826 87.6846 17.8944 88.6171 16.9619C89.5497 16.0293 90.7379 15.3942 92.0314 15.1369C93.3249 14.8796 94.6657 15.0117 95.8842 15.5164C97.1027 16.0211 98.1441 16.8758 98.8768 17.9723C99.6095 19.0689 100.001 20.3582 100.001 21.677C99.999 23.4451 99.296 25.1403 98.0458 26.3905C96.7956 27.6407 95.1004 28.3437 93.3323 28.3453V28.3453ZM93.3323 17.2305C92.4529 17.2305 91.5932 17.4913 90.862 17.9799C90.1307 18.4685 89.5608 19.1629 89.2242 19.9754C88.8877 20.7879 88.7997 21.6819 88.9712 22.5445C89.1428 23.407 89.5663 24.1993 90.1882 24.8212C90.81 25.443 91.6023 25.8666 92.4649 26.0381C93.3274 26.2097 94.2214 26.1216 95.0339 25.785C95.8464 25.4485 96.5409 24.8786 97.0295 24.1474C97.5181 23.4162 97.7789 22.5565 97.7789 21.677C97.7781 20.498 97.3093 19.3675 96.4756 18.5338C95.6419 17.7001 94.5114 17.2313 93.3323 17.2305V17.2305Z" fill="#F83718"/>
<path fill-rule="evenodd" clip-rule="evenodd" d="M8.89299 61.6806C7.13458 61.6812 5.41551 61.1604 3.95316 60.1839C2.4908 59.2074 1.3509 57.8192 0.677573 56.1948C0.00424845 54.5704 -0.172226 52.7828 0.17046 51.0581C0.513145 49.3334 1.35956 47.7491 2.60273 46.5055C3.8459 45.2619 5.42996 44.415 7.15454 44.0717C8.87912 43.7284 10.6668 43.9043 12.2914 44.577C13.916 45.2498 15.3046 46.3893 16.2815 47.8513C17.2585 49.3133 17.78 51.0322 17.78 52.7906C17.7768 55.1469 16.8396 57.4058 15.1738 59.0723C13.5079 60.7387 11.2493 61.6767 8.89299 61.6806V61.6806ZM8.89299 46.1104C7.57401 46.1098 6.28448 46.5004 5.18749 47.2328C4.09051 47.9651 3.23531 49.0063 2.73015 50.2247C2.22498 51.4431 2.09254 52.784 2.3495 54.0778C2.60646 55.3715 3.24132 56.5599 4.17378 57.4928C5.10623 58.4257 6.29437 59.0611 7.58796 59.3186C8.88156 59.5762 10.2225 59.4443 11.4411 58.9397C12.6598 58.435 13.7014 57.5804 14.4342 56.4837C15.1671 55.3871 15.5583 54.0976 15.5583 52.7786C15.5535 51.0132 14.8495 49.3216 13.6003 48.0741C12.3511 46.8265 10.6585 46.1247 8.89299 46.1224V46.1104Z" fill="#F83718"/>
</svg>
