<svg width="100" height="99" viewBox="0 0 100 99" fill="none" xmlns="http://www.w3.org/2000/svg">
<path fill-rule="evenodd" clip-rule="evenodd" d="M93.1089 98.0598H6.89095C5.06433 98.0582 3.31292 97.3321 2.02103 96.0408C0.729136 94.7494 0.00235727 92.9984 0 91.1717V87.1713C0.00235727 85.3447 0.729136 83.5936 2.02103 82.3022C3.31292 81.0109 5.06433 80.2848 6.89095 80.2832H38.8889C39.1833 80.2832 39.4656 80.4002 39.6737 80.6083C39.8819 80.8165 39.9988 81.0988 39.9988 81.3931V84.7259H60.0011V81.3991C60.0011 81.1047 60.1181 80.8224 60.3263 80.6142C60.5344 80.4061 60.8167 80.2891 61.1111 80.2891H93.1089C94.9355 80.2907 96.6869 81.0168 97.9788 82.3082C99.2707 83.5995 99.9976 85.3506 100 87.1772V91.1777C99.9961 93.0038 99.2686 94.754 97.9771 96.045C96.6855 97.336 94.9351 98.0626 93.1089 98.0657V98.0598ZM6.88805 82.503C5.65072 82.5046 4.46459 82.9971 3.58995 83.8723C2.7153 84.7475 2.22353 85.9339 2.22274 87.1713V91.1717C2.22353 92.4091 2.7153 93.5955 3.58995 94.4707C4.46459 95.3459 5.65072 95.8384 6.88805 95.8399H93.106C94.3436 95.8384 95.53 95.346 96.4051 94.4709C97.2803 93.5958 97.7726 92.4093 97.7742 91.1717V87.1713C97.7726 85.9337 97.2803 84.7472 96.4051 83.8721C95.53 82.997 94.3436 82.5046 93.106 82.503H62.2209V85.8506C62.2213 85.9965 62.193 86.141 62.1373 86.2758C62.0817 86.4107 61.9999 86.5332 61.8968 86.6363C61.7936 86.7395 61.6711 86.8212 61.5363 86.8769C61.4014 86.9325 61.257 86.9609 61.1111 86.9606H38.8859C38.5915 86.9606 38.3092 86.8436 38.101 86.6355C37.8929 86.4273 37.776 86.145 37.776 85.8506V82.503H6.88805Z" fill="#F83718"/>
<path fill-rule="evenodd" clip-rule="evenodd" d="M23.8864 16.6732C22.2932 16.6744 20.7354 16.203 19.4101 15.3187C18.0848 14.4344 17.0514 13.1768 16.4409 11.7052C15.8304 10.2336 15.6701 8.61392 15.9802 7.05113C16.2904 5.48835 17.0569 4.05264 18.1831 2.92563C19.3093 1.79861 20.7445 1.03091 22.3071 0.719654C23.8696 0.408393 25.4893 0.56755 26.9614 1.17699C28.4334 1.78643 29.6918 2.81878 30.5771 4.14344C31.4624 5.4681 31.9349 7.02557 31.9349 8.61883C31.9325 10.7548 31.0828 12.8025 29.5722 14.3126C28.0615 15.8226 26.0135 16.6716 23.8776 16.6732H23.8864ZM23.8864 2.7843C22.7325 2.7843 21.6045 3.12649 20.645 3.76759C19.6855 4.4087 18.9376 5.31993 18.496 6.38605C18.0544 7.45217 17.9389 8.6253 18.164 9.75709C18.3891 10.8889 18.9449 11.9285 19.7609 12.7445C20.5769 13.5604 21.6164 14.1161 22.7482 14.3412C23.8799 14.5664 25.053 14.4508 26.1192 14.0092C27.1853 13.5676 28.0965 12.8198 28.7376 11.8603C29.3787 10.9008 29.721 9.77279 29.721 8.61883C29.7202 7.07166 29.1052 5.58808 28.0112 4.49406C26.9172 3.40005 25.4336 2.78509 23.8864 2.7843Z" fill="#F83718"/>
<path fill-rule="evenodd" clip-rule="evenodd" d="M91.1093 82.5029H7.77891C7.6329 82.5033 7.48817 82.4749 7.35317 82.4193C7.21816 82.3637 7.09544 82.282 6.99206 82.1789C6.88868 82.0758 6.80675 81.9533 6.75079 81.8185C6.69482 81.6836 6.66602 81.539 6.66602 81.393V34.2272C6.66994 31.1929 7.87723 28.284 10.0231 26.1387C12.169 23.9934 15.0781 22.7868 18.1124 22.7837H80.7787C83.8125 22.7876 86.7209 23.9945 88.8661 26.1398C91.0113 28.285 92.2183 31.1934 92.2222 34.2272V81.399C92.2214 81.6936 92.1038 81.9759 91.8951 82.184C91.6865 82.3921 91.4039 82.5089 91.1093 82.5089V82.5029ZM8.88876 80.2831H89.9964V34.2272C89.9925 31.784 89.0199 29.442 87.292 27.7147C85.5641 25.9873 83.2219 25.0156 80.7787 25.0124H18.1124C15.6674 25.0148 13.3232 25.9869 11.594 27.7155C9.86487 29.4442 8.8919 31.7881 8.88876 34.2331V80.2831Z" fill="#F83718"/>
<path fill-rule="evenodd" clip-rule="evenodd" d="M76.666 16.952C75.5666 16.952 74.4918 16.626 73.5777 16.0152C72.6636 15.4044 71.9512 14.5363 71.5305 13.5206C71.1097 12.505 70.9998 11.3873 71.2143 10.3091C71.4287 9.23083 71.9581 8.24039 72.7355 7.46301C73.5129 6.68564 74.5032 6.15625 75.5815 5.94177C76.6597 5.72729 77.7774 5.83737 78.7931 6.25808C79.8088 6.67879 80.6769 7.39124 81.2877 8.30533C81.8984 9.21943 82.2245 10.2941 82.2245 11.3935C82.2229 12.8672 81.6368 14.2801 80.5947 15.3222C79.5526 16.3643 78.1397 16.9504 76.666 16.952ZM76.666 8.06372C76.0075 8.06665 75.3645 8.2646 74.8184 8.63258C74.2723 9.00057 73.8474 9.52209 73.5974 10.1313C73.3474 10.7405 73.2836 11.4102 73.4138 12.0557C73.5441 12.7012 73.8627 13.2936 74.3293 13.7583C74.796 14.2229 75.39 14.5388 76.0361 14.6662C76.6821 14.7936 77.3515 14.7267 77.9596 14.4741C78.5677 14.2214 79.0873 13.7942 79.4528 13.2465C79.8184 12.6987 80.0135 12.055 80.0135 11.3965C80.0131 10.9577 79.9261 10.5232 79.7576 10.1181C79.589 9.71295 79.3423 9.34506 79.0313 9.03547C78.7203 8.72588 78.3513 8.48068 77.9454 8.31393C77.5395 8.14718 77.1048 8.06216 76.666 8.06372Z" fill="#F83718"/>
<path fill-rule="evenodd" clip-rule="evenodd" d="M91.1082 76.9474H7.77784C7.62706 76.9552 7.47619 76.9323 7.33457 76.8799C7.19294 76.8276 7.06352 76.747 6.95404 76.643C6.84456 76.5391 6.75727 76.4139 6.6977 76.2752C6.63812 76.1364 6.60742 75.987 6.60742 75.836C6.60742 75.6851 6.63812 75.5356 6.6977 75.3969C6.75727 75.2582 6.84456 75.133 6.95404 75.029C7.06352 74.9251 7.19294 74.8445 7.33457 74.7921C7.47619 74.7398 7.62706 74.7168 7.77784 74.7246H91.1082C91.3931 74.7394 91.6613 74.8629 91.8577 75.0697C92.0541 75.2765 92.1636 75.5508 92.1636 75.836C92.1636 76.1212 92.0541 76.3956 91.8577 76.6024C91.6613 76.8092 91.3931 76.9327 91.1082 76.9474Z" fill="#F83718"/>
<path fill-rule="evenodd" clip-rule="evenodd" d="M28.9058 46.5759C29.9829 46.5619 31.0131 46.1324 31.7812 45.377C32.5493 44.6216 32.9959 43.5988 33.028 42.5221C33.028 42.4805 33.028 42.439 33.028 42.3974V37.3523H24.6797V42.3974C24.6804 43.4949 25.1128 44.5481 25.8836 45.3294C26.6543 46.1107 27.7016 46.5574 28.799 46.573H28.9087L28.9058 46.5759Z" fill="#F83718"/>
<path fill-rule="evenodd" clip-rule="evenodd" d="M26.2441 35.1203H33.5298L40.0321 25.0034L36.361 25.0064L26.2441 35.1203Z" fill="#F83718"/>
<path fill-rule="evenodd" clip-rule="evenodd" d="M42.6722 25.0064L36.1699 35.1203H43.8118L45.9812 25.0034L42.6722 25.0064Z" fill="#F83718"/>
<path fill-rule="evenodd" clip-rule="evenodd" d="M43.6012 37.3433H35.25V42.5219C35.2527 43.0703 35.3634 43.6127 35.5758 44.1183C35.7881 44.6238 36.098 45.0826 36.4877 45.4684C36.8773 45.8542 37.3392 46.1595 37.8469 46.3668C38.3545 46.5741 38.898 46.6794 39.4464 46.6767C39.9947 46.674 40.5371 46.5633 41.0427 46.3509C41.5482 46.1386 42.007 45.8287 42.3928 45.439C42.7786 45.0494 43.0839 44.5875 43.2912 44.0799C43.4985 43.5722 43.6039 43.0287 43.6012 42.4804V37.3462V37.3433Z" fill="#F83718"/>
<path fill-rule="evenodd" clip-rule="evenodd" d="M48.2524 25.0066L46.0859 35.1206H53.9118L51.7454 25.0037L48.2524 25.0066Z" fill="#F83718"/>
<path fill-rule="evenodd" clip-rule="evenodd" d="M56.185 35.1203H63.8239L57.3247 25.0034L54.0156 25.0064L56.185 35.1203Z" fill="#F83718"/>
<path fill-rule="evenodd" clip-rule="evenodd" d="M64.7497 37.3434H56.3986V42.3885C56.3884 43.4959 56.8184 44.5621 57.5943 45.3524C58.3701 46.1427 59.4282 46.5924 60.5356 46.6027C61.643 46.6129 62.7091 46.1828 63.4994 45.407C64.2897 44.6311 64.7394 43.5731 64.7497 42.4657V37.3315V37.3434Z" fill="#F83718"/>
<path fill-rule="evenodd" clip-rule="evenodd" d="M59.9648 25.0064L66.4641 35.1203H73.7528L63.6359 25.0034L59.9648 25.0064Z" fill="#F83718"/>
<path fill-rule="evenodd" clip-rule="evenodd" d="M60.5748 48.7987C59.9887 47.9363 59.2006 47.2304 58.279 46.7425C57.3575 46.2546 56.3306 45.9995 55.2878 45.9995C54.2451 45.9995 53.2182 46.2546 52.2967 46.7425C51.3751 47.2304 50.587 47.9363 50.0009 48.7987C49.4144 47.9363 48.6259 47.2304 47.7041 46.7425C46.7823 46.2547 45.7552 45.9996 44.7123 45.9996C43.6694 45.9996 42.6423 46.2547 41.7206 46.7425C40.7988 47.2304 40.0104 47.9363 39.4239 48.7987C38.9615 47.9531 38.2819 47.246 37.4553 46.7503C36.6288 46.2546 35.685 45.9882 34.7212 45.9785C33.7574 45.9688 32.8086 46.2162 31.9722 46.6953C31.1358 47.1743 30.4422 47.8676 29.9629 48.7037V65.0054H70.027V48.7037C69.5479 47.8668 68.8542 47.1729 68.0176 46.6934C67.1809 46.2139 66.2314 45.9662 65.2671 45.9759C64.3028 45.9855 63.3585 46.2522 62.5316 46.7484C61.7048 47.2446 61.0252 47.9524 60.5629 48.7987H60.5748Z" fill="#F83718"/>
<path fill-rule="evenodd" clip-rule="evenodd" d="M28.7959 46.5757C31.0336 46.549 32.9508 44.7535 33.028 42.5247C33.028 42.4832 33.028 42.4416 33.028 42.4001V37.355H24.6797V42.4001C24.6804 43.4976 25.1128 44.5508 25.8836 45.3321C26.6543 46.1134 27.7016 46.5601 28.799 46.5757H28.7959ZM71.0948 46.5757C72.204 46.5651 73.2654 46.1235 74.0547 45.3442C74.844 44.5649 75.2992 43.509 75.3238 42.4001V37.355H66.9696V42.4001C66.968 42.4258 66.968 42.4516 66.9696 42.4773C66.9904 43.5649 67.4346 44.6015 68.2077 45.3668C68.9808 46.1322 70.0218 46.5658 71.1096 46.5757H71.0948Z" fill="#F83718"/>
<path fill-rule="evenodd" clip-rule="evenodd" d="M54.1734 37.3433H45.8223V42.5219C45.825 43.0703 45.9357 43.6127 46.148 44.1183C46.3604 44.6238 46.6703 45.0826 47.0599 45.4684C47.4496 45.8542 47.9115 46.1595 48.4192 46.3668C48.9268 46.5741 49.4703 46.6794 50.0187 46.6767C50.567 46.674 51.1094 46.5633 51.615 46.3509C52.1205 46.1386 52.5793 45.8287 52.9651 45.439C53.3509 45.0494 53.6562 44.5875 53.8635 44.0799C54.0708 43.5722 54.1762 43.0287 54.1734 42.4804C54.172 42.4547 54.172 42.4289 54.1734 42.4032V37.3433Z" fill="#F83718"/>
</svg>
