<svg width="168" height="170" viewBox="0 0 168 170" fill="none" xmlns="http://www.w3.org/2000/svg">
<ellipse cx="2.46661" cy="3.44515" rx="2.46661" ry="2.47884" fill="#F83718"/>
<ellipse cx="17.2674" cy="3.44515" rx="2.46661" ry="2.47884" fill="#F83718"/>
<ellipse cx="2.46661" cy="18.3177" rx="2.46661" ry="2.47884" fill="#F83718"/>
<ellipse cx="17.2694" cy="18.3177" rx="2.46661" ry="2.47884" fill="#F83718"/>
<ellipse cx="2.46661" cy="33.192" rx="2.46661" ry="2.47884" fill="#F83718"/>
<ellipse cx="17.2694" cy="33.192" rx="2.46661" ry="2.47884" fill="#F83718"/>
<ellipse cx="2.46661" cy="48.0655" rx="2.46661" ry="2.47884" fill="#F83718"/>
<ellipse cx="17.2694" cy="48.0655" rx="2.46661" ry="2.47884" fill="#F83718"/>
<ellipse cx="2.46661" cy="62.9366" rx="2.46661" ry="2.47884" fill="#F83718"/>
<ellipse cx="17.2694" cy="62.9369" rx="2.46661" ry="2.47884" fill="#F83718"/>
<ellipse cx="2.46661" cy="77.8104" rx="2.46661" ry="2.47884" fill="#F83718"/>
<ellipse cx="17.2694" cy="77.8104" rx="2.46661" ry="2.47884" fill="#F83718"/>
<ellipse cx="2.46661" cy="92.6837" rx="2.46661" ry="2.47884" fill="#F83718"/>
<ellipse cx="17.2694" cy="92.6837" rx="2.46661" ry="2.47884" fill="#F83718"/>
<ellipse cx="2.46661" cy="107.556" rx="2.46661" ry="2.47884" fill="#F83718"/>
<ellipse cx="17.2694" cy="107.556" rx="2.46661" ry="2.47884" fill="#F83718"/>
<ellipse cx="2.46661" cy="122.43" rx="2.46661" ry="2.47884" fill="#F83718"/>
<ellipse cx="17.2694" cy="122.43" rx="2.46661" ry="2.47884" fill="#F83718"/>
<ellipse cx="2.46661" cy="137.303" rx="2.46661" ry="2.47884" fill="#F83718"/>
<ellipse cx="17.2694" cy="137.303" rx="2.46661" ry="2.47884" fill="#F83718"/>
<ellipse cx="2.46661" cy="152.175" rx="2.46661" ry="2.47884" fill="#F83718"/>
<ellipse cx="17.2694" cy="152.175" rx="2.46661" ry="2.47884" fill="#F83718"/>
<ellipse cx="32.0643" cy="152.175" rx="2.46661" ry="2.47884" fill="#F83718"/>
<ellipse cx="46.8651" cy="152.175" rx="2.46661" ry="2.47884" fill="#F83718"/>
<ellipse cx="61.6639" cy="152.175" rx="2.46661" ry="2.47884" fill="#F83718"/>
<ellipse cx="76.4647" cy="152.175" rx="2.46661" ry="2.47884" fill="#F83718"/>
<ellipse cx="91.2674" cy="152.175" rx="2.46661" ry="2.47884" fill="#F83718"/>
<ellipse cx="106.064" cy="152.175" rx="2.46661" ry="2.47884" fill="#F83718"/>
<ellipse cx="2.46661" cy="167.05" rx="2.46661" ry="2.47884" fill="#F83718"/>
<ellipse cx="17.2694" cy="167.05" rx="2.46661" ry="2.47884" fill="#F83718"/>
<ellipse cx="32.0643" cy="167.05" rx="2.46661" ry="2.47884" fill="#F83718"/>
<ellipse cx="46.8651" cy="167.05" rx="2.46661" ry="2.47884" fill="#F83718"/>
<ellipse cx="61.6639" cy="167.05" rx="2.46661" ry="2.47884" fill="#F83718"/>
<ellipse cx="76.4647" cy="167.05" rx="2.46661" ry="2.47884" fill="#F83718"/>
<ellipse cx="91.2674" cy="167.05" rx="2.46661" ry="2.47884" fill="#F83718"/>
<ellipse cx="106.064" cy="167.05" rx="2.46661" ry="2.47884" fill="#F83718"/>
<ellipse cx="120.271" cy="152.175" rx="2.46661" ry="2.47884" fill="#F83718"/>
<ellipse cx="135.076" cy="152.175" rx="2.46661" ry="2.47884" fill="#F83718"/>
<ellipse cx="149.869" cy="152.175" rx="2.46661" ry="2.47884" fill="#F83718"/>
<ellipse cx="164.672" cy="152.175" rx="2.46661" ry="2.47884" fill="#F83718"/>
<ellipse cx="120.271" cy="167.05" rx="2.46661" ry="2.47884" fill="#F83718"/>
<ellipse cx="135.076" cy="167.05" rx="2.46661" ry="2.47884" fill="#F83718"/>
<ellipse cx="149.869" cy="167.05" rx="2.46661" ry="2.47884" fill="#F83718"/>
<ellipse cx="164.672" cy="167.05" rx="2.46661" ry="2.47884" fill="#F83718"/>
</svg>
