<svg width="84" height="86" viewBox="0 0 84 86" fill="none" xmlns="http://www.w3.org/2000/svg">
<path d="M25.221 11.7988H45.7693C46.0175 11.7988 46.2555 11.8974 46.431 12.0729C46.6065 12.2484 46.7051 12.4865 46.7051 12.7347V29.5471C46.7051 29.7953 46.6065 30.0334 46.431 30.2089C46.2555 30.3844 46.0175 30.4829 45.7693 30.4829H25.221C24.9728 30.4829 24.7348 30.3844 24.5593 30.2089C24.3838 30.0334 24.2852 29.7953 24.2852 29.5471V12.7347C24.2848 12.6117 24.3088 12.4898 24.3557 12.3762C24.4026 12.2625 24.4716 12.1591 24.5585 12.0722C24.6455 11.9852 24.7488 11.9163 24.8625 11.8694C24.9762 11.8225 25.098 11.7985 25.221 11.7988Z" fill="white"/>
<path fill-rule="evenodd" clip-rule="evenodd" d="M65.387 35.1504H25.2212C24.9818 35.138 24.7562 35.0341 24.5911 34.8601C24.426 34.6862 24.334 34.4556 24.334 34.2158C24.334 33.976 24.426 33.7454 24.5911 33.5715C24.7562 33.3976 24.9818 33.2937 25.2212 33.2812H65.387C65.6264 33.2937 65.8519 33.3976 66.017 33.5715C66.1821 33.7454 66.2742 33.976 66.2742 34.2158C66.2742 34.4556 66.1821 34.6862 66.017 34.8601C65.8519 35.0341 65.6264 35.138 65.387 35.1504Z" fill="white"/>
<path fill-rule="evenodd" clip-rule="evenodd" d="M65.387 39.8189H25.2212C24.9818 39.8064 24.7562 39.7025 24.5911 39.5286C24.426 39.3547 24.334 39.124 24.334 38.8842C24.334 38.6445 24.426 38.4139 24.5911 38.24C24.7562 38.0661 24.9818 37.9622 25.2212 37.9497H65.387C65.6264 37.9622 65.8519 38.0661 66.017 38.24C66.1821 38.4139 66.2742 38.6445 66.2742 38.8842C66.2742 39.124 66.1821 39.3547 66.017 39.5286C65.8519 39.7025 65.6264 39.8064 65.387 39.8189Z" fill="white"/>
<path fill-rule="evenodd" clip-rule="evenodd" d="M47.6398 44.4911H25.2224C24.9748 44.4911 24.7375 44.3928 24.5624 44.2178C24.3874 44.0427 24.2891 43.8054 24.2891 43.5578C24.2891 43.3103 24.3874 43.0729 24.5624 42.8978C24.7375 42.7228 24.9748 42.6245 25.2224 42.6245H47.6398C47.8874 42.6245 48.1247 42.7228 48.2998 42.8978C48.4748 43.0729 48.5731 43.3103 48.5731 43.5578C48.5731 43.8054 48.4748 44.0427 48.2998 44.2178C48.1247 44.3928 47.8874 44.4911 47.6398 44.4911Z" fill="white"/>
<path fill-rule="evenodd" clip-rule="evenodd" d="M47.6387 49.1528H25.2212C24.9818 49.1404 24.7562 49.0365 24.5911 48.8626C24.426 48.6887 24.334 48.458 24.334 48.2182C24.334 47.9784 24.426 47.7478 24.5911 47.5739C24.7562 47.4 24.9818 47.2961 25.2212 47.2837H47.6387C47.8781 47.2961 48.1037 47.4 48.2688 47.5739C48.4339 47.7478 48.5259 47.9784 48.5259 48.2182C48.5259 48.458 48.4339 48.6887 48.2688 48.8626C48.1037 49.0365 47.8781 49.1404 47.6387 49.1528Z" fill="white"/>
<path fill-rule="evenodd" clip-rule="evenodd" d="M47.6398 53.8306H25.2224C24.9748 53.8306 24.7375 53.7322 24.5624 53.5572C24.3874 53.3821 24.2891 53.1448 24.2891 52.8972C24.2891 52.6497 24.3874 52.4123 24.5624 52.2372C24.7375 52.0622 24.9748 51.9639 25.2224 51.9639H47.6398C47.8874 51.9639 48.1247 52.0622 48.2998 52.2372C48.4748 52.4123 48.5731 52.6497 48.5731 52.8972C48.5731 53.1448 48.4748 53.3821 48.2998 53.5572C48.1247 53.7322 47.8874 53.8306 47.6398 53.8306Z" fill="white"/>
<path fill-rule="evenodd" clip-rule="evenodd" d="M47.6387 58.503H25.2212C24.9818 58.4906 24.7562 58.3867 24.5911 58.2128C24.426 58.0388 24.334 57.8082 24.334 57.5684C24.334 57.3286 24.426 57.0979 24.5911 56.924C24.7562 56.7501 24.9818 56.6462 25.2212 56.6338H47.6387C47.8781 56.6462 48.1037 56.7501 48.2688 56.924C48.4339 57.0979 48.5259 57.3286 48.5259 57.5684C48.5259 57.8082 48.4339 58.0388 48.2688 58.2128C48.1037 58.3867 47.8781 58.4906 47.6387 58.503Z" fill="white"/>
<path fill-rule="evenodd" clip-rule="evenodd" d="M57.8201 85.5898H11.2119C11.1741 85.5925 11.1361 85.5925 11.0983 85.5898H10.7452C8.39247 85.5871 6.13686 84.6513 4.47322 82.9877C2.80957 81.324 1.87376 79.0684 1.87109 76.7157V37.9525C1.87176 37.7054 1.97037 37.4687 2.14533 37.2942C2.32029 37.1197 2.55731 37.0217 2.8044 37.0217H17.7451V1.52511C17.7451 1.40233 17.7694 1.28077 17.8165 1.16737C17.8635 1.05397 17.9324 0.95098 18.0194 0.86428C18.1063 0.77758 18.2095 0.708885 18.323 0.66213C18.4366 0.615374 18.5582 0.591468 18.681 0.5918H72.8541C72.9769 0.591468 73.0985 0.615374 73.212 0.66213C73.3255 0.708885 73.4288 0.77758 73.5157 0.86428C73.6026 0.95098 73.6716 1.05397 73.7187 1.16737C73.7657 1.28077 73.7899 1.40233 73.7899 1.52511V69.6173C73.7839 73.8521 72.0989 77.9117 69.1042 80.9059C66.1096 83.9001 62.0498 85.5844 57.815 85.5898H57.8201ZM16.1837 83.7232H57.8201C61.5595 83.7178 65.1442 82.2299 67.7884 79.5857C70.4326 76.9416 71.9205 73.3568 71.9258 69.6173V2.46095H19.6168V76.7157C19.6169 78.0682 19.3077 79.4028 18.7126 80.6174C18.1176 81.832 17.2525 82.8943 16.1837 83.7232ZM3.73772 38.8883V76.7258C3.72004 77.657 3.8882 78.5825 4.23236 79.448C4.57652 80.3135 5.08976 81.1017 5.7421 81.7665C6.39444 82.4313 7.1728 82.9595 8.03162 83.32C8.89045 83.6805 9.81256 83.8662 10.744 83.8662C11.6754 83.8662 12.5975 83.6805 13.4563 83.32C14.3151 82.9595 15.0935 82.4313 15.7458 81.7665C16.3981 81.1017 16.9114 80.3135 17.2555 79.448C17.5997 78.5825 17.7679 77.657 17.7502 76.7258V38.8883H3.73772Z" fill="white"/>
<path fill-rule="evenodd" clip-rule="evenodd" d="M78.4613 85.5909C77.5372 85.5914 76.6338 85.3178 75.8652 84.8048C75.0966 84.2918 74.4974 83.5623 74.1434 82.7087C73.7894 81.8551 73.6966 80.9157 73.8766 80.0094C74.0565 79.103 74.5013 78.2703 75.1545 77.6167C75.8078 76.9631 76.6402 76.518 77.5465 76.3375C78.4527 76.157 79.3922 76.2494 80.2459 76.6029C81.0997 76.9564 81.8295 77.5552 82.3429 78.3235C82.8564 79.0918 83.1304 79.9951 83.1304 80.9192C83.1291 82.1574 82.6368 83.3445 81.7615 84.2202C80.8863 85.096 79.6994 85.5889 78.4613 85.5909ZM78.4613 78.1167C77.9069 78.1162 77.3648 78.2802 76.9036 78.5878C76.4424 78.8954 76.0828 79.3329 75.8703 79.845C75.6578 80.357 75.602 80.9206 75.7098 81.4644C75.8177 82.0082 76.0844 82.5078 76.4762 82.9C76.8681 83.2922 77.3674 83.5593 77.9111 83.6676C78.4548 83.776 79.0184 83.7207 79.5306 83.5086C80.0429 83.2966 80.4808 82.9374 80.7888 82.4765C81.0969 82.0156 81.2613 81.4736 81.2613 80.9192C81.2606 80.1766 80.9655 79.4646 80.4406 78.9392C79.9157 78.4138 79.2039 78.1181 78.4613 78.1167Z" fill="white"/>
<path fill-rule="evenodd" clip-rule="evenodd" d="M6.53835 23.9431C5.24519 23.9431 3.98107 23.5596 2.90585 22.8411C1.83063 22.1227 0.99259 21.1015 0.497721 19.9068C0.00285176 18.7121 -0.126654 17.3975 0.125628 16.1292C0.37791 14.8609 1.00062 13.6958 1.91502 12.7814C2.82942 11.867 3.99444 11.2443 5.26275 10.9921C6.53106 10.7398 7.84574 10.8693 9.04046 11.3641C10.2352 11.859 11.2563 12.697 11.9747 13.7722C12.6931 14.8474 13.0766 16.1116 13.0766 17.4047C13.0713 19.1371 12.3808 20.7971 11.1558 22.0221C9.93074 23.2471 8.27078 23.9377 6.53835 23.9431ZM6.53835 12.7356C5.61427 12.7356 4.71093 13.0097 3.94263 13.5231C3.17432 14.0365 2.57553 14.7663 2.22202 15.6201C1.86851 16.4738 1.77613 17.4133 1.95659 18.3196C2.13705 19.2259 2.58229 20.0583 3.23588 20.7115C3.88948 21.3648 4.72212 21.8095 5.6285 21.9895C6.53488 22.1695 7.47427 22.0765 8.32786 21.7226C9.18145 21.3686 9.91086 20.7694 10.4239 20.0009C10.9369 19.2323 11.2105 18.3288 11.21 17.4047C11.2087 16.1663 10.716 14.9791 9.84007 14.1037C8.96418 13.2283 7.77671 12.7362 6.53835 12.7356Z" fill="white"/>
</svg>
