<svg width="90" height="81" viewBox="0 0 90 81" fill="none" xmlns="http://www.w3.org/2000/svg">
<path fill-rule="evenodd" clip-rule="evenodd" d="M50.8607 70.114C50.608 70.114 50.3657 70.0138 50.1868 69.8354C50.0079 69.6569 49.907 69.4149 49.9062 69.1622V48.2176C49.9191 47.9736 50.0252 47.7437 50.2026 47.5755C50.3799 47.4073 50.615 47.3135 50.8594 47.3135C51.1038 47.3135 51.3389 47.4073 51.5163 47.5755C51.6936 47.7437 51.7997 47.9736 51.8126 48.2176V69.1622C51.8126 69.4146 51.7122 69.6567 51.5337 69.8352C51.3552 70.0137 51.1131 70.114 50.8607 70.114Z" fill="white"/>
<path fill-rule="evenodd" clip-rule="evenodd" d="M57.0475 70.1141H44.6637C44.5387 70.1141 44.4149 70.0895 44.2994 70.0417C44.184 69.9939 44.0791 69.9237 43.9907 69.8354C43.9023 69.747 43.8322 69.6421 43.7844 69.5266C43.7366 69.4111 43.7119 69.2874 43.7119 69.1624V65.8722C39.6139 64.2144 36.2201 61.1829 34.1121 57.2973C32.004 53.4117 31.313 48.9138 32.1575 44.5746C33.0019 40.2354 35.3293 36.325 38.7406 33.5135C42.152 30.702 46.435 29.1646 50.8556 29.1646C55.2762 29.1646 59.5593 30.702 62.9706 33.5135C66.382 36.325 68.7093 40.2354 69.5538 44.5746C70.3982 48.9138 69.7072 53.4117 67.5991 57.2973C65.4911 61.1829 62.0972 64.2144 57.9992 65.8722V69.1624C57.9978 69.4148 57.8968 69.6565 57.7181 69.8348C57.5393 70.013 57.2974 70.1134 57.0449 70.1141H57.0475ZM45.6182 68.2079H56.093V65.2174C56.0936 65.0217 56.1542 64.8308 56.2665 64.6706C56.3789 64.5104 56.5376 64.3885 56.7214 64.3213C60.5084 62.9425 63.6887 60.2736 65.7035 56.7833C67.7184 53.2929 68.4391 49.2043 67.7391 45.2353C67.0391 41.2664 64.9632 37.671 61.8759 35.0805C58.7885 32.49 54.8871 31.0701 50.8569 31.0701C46.8267 31.0701 42.9254 32.49 39.8381 35.0805C36.7507 37.671 34.6748 41.2664 33.9748 45.2353C33.2748 49.2043 33.9955 53.2929 36.0104 56.7833C38.0253 60.2736 41.2055 62.9425 44.9925 64.3213C45.1758 64.3889 45.3339 64.511 45.4457 64.6712C45.5576 64.8314 45.6178 65.022 45.6182 65.2174V68.2079Z" fill="white"/>
<path fill-rule="evenodd" clip-rule="evenodd" d="M75.1367 50.1135L68.9514 50.0923C68.699 50.0923 68.4569 49.992 68.2784 49.8135C68.0999 49.635 67.9996 49.3929 67.9996 49.1405C67.9996 48.8881 68.0999 48.646 68.2784 48.4675C68.4569 48.289 68.699 48.1887 68.9514 48.1887L75.134 48.2099C78.3636 48.1625 81.4448 46.8463 83.7119 44.5457C85.9789 42.2451 87.2498 39.1449 87.2498 35.9149C87.2498 32.685 85.9789 29.5848 83.7119 27.2842C81.4448 24.9836 78.3636 23.6674 75.134 23.62C74.9166 23.62 74.6859 23.6199 74.4288 23.6412C74.2422 23.6518 74.0567 23.6072 73.8954 23.5129C73.7341 23.4186 73.6042 23.2787 73.5221 23.1109C72.5899 21.2254 71.2703 19.5578 69.6496 18.2171C68.0289 16.8764 66.1436 15.8928 64.1167 15.3306C62.0899 14.7683 59.9672 14.6401 57.8874 14.9542C55.8077 15.2684 53.8176 16.0178 52.0473 17.1537C51.9287 17.2301 51.7948 17.2793 51.6549 17.2976C51.515 17.3159 51.3728 17.3029 51.2386 17.2595C51.1043 17.2161 50.9815 17.1434 50.8788 17.0467C50.7761 16.95 50.6961 16.8317 50.6448 16.7003C48.8411 12.1234 45.497 8.31923 41.189 5.9438C36.881 3.56836 31.8792 2.77052 27.046 3.68784C22.2128 4.60516 17.8512 7.18015 14.7131 10.9688C11.575 14.7575 9.85723 19.5223 9.85594 24.4418C9.85598 25.6089 9.95176 26.7741 10.1423 27.9255C10.1814 28.1651 10.1278 28.4106 9.99238 28.612C9.85693 28.8135 9.64984 28.9557 9.4132 29.0099C7.09962 29.5343 5.06057 30.8933 3.68605 32.8268C2.31152 34.7603 1.698 37.1326 1.96282 39.4901C2.22765 41.8476 3.35218 44.0247 5.12143 45.605C6.89067 47.1854 9.18046 48.058 11.5527 48.0561L31.5402 48.1092C31.7926 48.1092 32.0347 48.2095 32.2132 48.388C32.3917 48.5665 32.492 48.8085 32.492 49.061C32.492 49.3134 32.3917 49.5555 32.2132 49.734C32.0347 49.9125 31.7926 50.0127 31.5402 50.0127L11.5527 49.9624C8.78814 49.9633 6.11487 48.9725 4.01874 47.1699C1.92261 45.3674 0.542654 42.8726 0.129632 40.139C-0.28339 37.4054 0.297922 34.6144 1.76793 32.273C3.23794 29.9316 5.49913 28.1952 8.14061 27.3794C7.72321 24.1336 8.00233 20.8361 8.95934 17.7066C9.91635 14.5772 11.5293 11.6876 13.6907 9.23045C15.8521 6.77327 18.5123 4.80493 21.4941 3.45657C24.476 2.10821 27.7109 1.41079 30.9834 1.41077C35.4201 1.41002 39.7626 2.69062 43.489 5.09866C47.2153 7.50669 50.1669 10.9397 51.989 14.985C53.9375 13.9121 56.0789 13.2353 58.29 12.9935C60.5012 12.7517 62.7382 12.9498 64.8725 13.5762C67.0068 14.2026 68.9961 15.245 70.7259 16.6434C72.4556 18.0418 73.8915 19.7686 74.9511 21.7243H75.1393C78.9054 21.7243 82.5172 23.2204 85.1801 25.8834C87.8431 28.5464 89.3392 32.1582 89.3392 35.9242C89.3392 39.6903 87.8431 43.3021 85.1801 45.965C82.5172 48.628 78.9054 50.1241 75.1393 50.1241L75.1367 50.1135Z" fill="white"/>
<path fill-rule="evenodd" clip-rule="evenodd" d="M17.524 24.3997C17.2716 24.3997 17.0295 24.2994 16.851 24.1209C16.6725 23.9424 16.5723 23.7003 16.5723 23.4479C16.5765 19.408 18.183 15.5347 21.0394 12.6778C23.8958 9.82088 27.7688 8.21367 31.8088 8.20875C31.9382 8.20193 32.0676 8.22151 32.1892 8.26633C32.3107 8.31114 32.4219 8.38025 32.5159 8.46942C32.6099 8.5586 32.6848 8.66597 32.7359 8.78502C32.7871 8.90406 32.8135 9.03228 32.8135 9.16186C32.8135 9.29143 32.7871 9.41965 32.7359 9.5387C32.6848 9.65774 32.6099 9.76513 32.5159 9.8543C32.4219 9.94348 32.3107 10.0126 32.1892 10.0574C32.0676 10.1022 31.9382 10.1218 31.8088 10.115C28.2739 10.1192 24.8851 11.5253 22.3856 14.0247C19.8861 16.5242 18.48 19.9131 18.4758 23.4479C18.4762 23.573 18.4518 23.6969 18.4041 23.8125C18.3564 23.9282 18.2863 24.0332 18.1978 24.1217C18.1094 24.2101 18.0043 24.2802 17.8887 24.3279C17.773 24.3757 17.6491 24.4 17.524 24.3997Z" fill="white"/>
<path fill-rule="evenodd" clip-rule="evenodd" d="M79.4295 12.0185C78.2997 12.018 77.1953 11.6825 76.2561 11.0543C75.3169 10.4262 74.5849 9.53375 74.1529 8.48972C73.7209 7.4457 73.6081 6.29702 73.8289 5.18891C74.0496 4.08081 74.594 3.06303 75.3932 2.26427C76.1923 1.4655 77.2104 0.921625 78.3186 0.701389C79.4268 0.481153 80.5753 0.59444 81.6191 1.02695C82.6629 1.45946 83.5551 2.19177 84.1828 3.13127C84.8105 4.07077 85.1456 5.17528 85.1456 6.30516C85.1435 7.82025 84.5405 9.27264 83.4689 10.3437C82.3973 11.4148 80.9446 12.0171 79.4295 12.0185ZM79.4295 2.49536C78.676 2.49536 77.9394 2.71881 77.3128 3.13743C76.6863 3.55606 76.1981 4.15106 75.9097 4.84721C75.6213 5.54335 75.5459 6.30938 75.6929 7.0484C75.8399 7.78743 76.2028 8.46627 76.7356 8.99907C77.2684 9.53188 77.9472 9.89474 78.6862 10.0417C79.4252 10.1887 80.1913 10.1133 80.8874 9.82494C81.5836 9.53659 82.1786 9.04828 82.5973 8.42176C83.0159 7.79524 83.2394 7.05867 83.2394 6.30516C83.2387 5.29496 82.837 4.32633 82.1227 3.61201C81.4084 2.89769 80.4397 2.49606 79.4295 2.49536Z" fill="white"/>
<path fill-rule="evenodd" clip-rule="evenodd" d="M11.8117 80.5921C10.3046 80.5926 8.8311 80.1462 7.57772 79.3092C6.32434 78.4723 5.34731 77.2825 4.77019 75.8902C4.19308 74.498 4.04185 72.9658 4.33555 71.4876C4.62926 70.0094 5.3547 68.6515 6.42021 67.5856C7.48572 66.5197 8.84343 65.7937 10.3216 65.4995C11.7997 65.2053 13.3318 65.356 14.7243 65.9327C16.1167 66.5093 17.3069 67.4859 18.1443 68.739C18.9817 69.9921 19.4286 71.4654 19.4286 72.9725C19.4258 74.992 18.6225 76.9281 17.1947 78.3563C15.7669 79.7846 13.8312 80.5886 11.8117 80.5921ZM11.8117 67.2565C10.6811 67.256 9.57563 67.5908 8.63529 68.2185C7.69495 68.8463 6.96192 69.7388 6.52888 70.7832C6.09585 71.8276 5.98228 72.977 6.20253 74.086C6.42279 75.195 6.96697 76.2137 7.76627 77.0134C8.56556 77.813 9.58402 78.3577 10.6929 78.5785C11.8018 78.7992 12.9512 78.6862 13.9958 78.2537C15.0405 77.8211 15.9333 77.0885 16.5615 76.1484C17.1897 75.2084 17.525 74.1031 17.525 72.9725C17.5236 71.4574 16.9213 70.0047 15.8503 68.9332C14.7792 67.8616 13.3268 67.2586 11.8117 67.2565Z" fill="white"/>
<path fill-rule="evenodd" clip-rule="evenodd" d="M57.9697 74.8761H43.7486C42.8648 74.8761 42.0171 74.525 41.3921 73.9C40.7671 73.275 40.416 72.4274 40.416 71.5435C40.416 70.6597 40.7671 69.812 41.3921 69.1871C42.0171 68.5621 42.8648 68.2109 43.7486 68.2109H57.9697C58.8536 68.2109 59.7012 68.5621 60.3262 69.1871C60.9512 69.812 61.3023 70.6597 61.3023 71.5435C61.3023 72.4274 60.9512 73.275 60.3262 73.9C59.7012 74.525 58.8536 74.8761 57.9697 74.8761ZM43.746 70.1039C43.367 70.1039 43.0035 70.2545 42.7355 70.5225C42.4675 70.7905 42.3169 71.1539 42.3169 71.5329C42.3169 71.9119 42.4675 72.2754 42.7355 72.5434C43.0035 72.8114 43.367 72.9619 43.746 72.9619H57.9697C58.3487 72.9619 58.7121 72.8114 58.9801 72.5434C59.2481 72.2754 59.3986 71.9119 59.3986 71.5329C59.3986 71.1539 59.2481 70.7905 58.9801 70.5225C58.7121 70.2545 58.3487 70.1039 57.9697 70.1039H43.746Z" fill="white"/>
<path fill-rule="evenodd" clip-rule="evenodd" d="M57.9687 79.6393H43.7476C43.3019 79.6519 42.8581 79.5749 42.4426 79.4131C42.0272 79.2512 41.6484 79.0076 41.3287 78.6968C41.009 78.386 40.7548 78.0142 40.5813 77.6035C40.4077 77.1927 40.3184 76.7513 40.3184 76.3054C40.3184 75.8595 40.4077 75.4181 40.5813 75.0074C40.7548 74.5966 41.009 74.2249 41.3287 73.9141C41.6484 73.6032 42.0272 73.3597 42.4426 73.1978C42.8581 73.0359 43.3019 72.959 43.7476 72.9715H57.9687C58.4144 72.959 58.8581 73.0359 59.2736 73.1978C59.6891 73.3597 60.0678 73.6032 60.3876 73.9141C60.7073 74.2249 60.9615 74.5966 61.135 75.0074C61.3086 75.4181 61.3979 75.8595 61.3979 76.3054C61.3979 76.7513 61.3086 77.1927 61.135 77.6035C60.9615 78.0142 60.7073 78.386 60.3876 78.6968C60.0678 79.0076 59.6891 79.2512 59.2736 79.4131C58.8581 79.5749 58.4144 79.6519 57.9687 79.6393ZM43.7449 74.8671C43.5523 74.8588 43.3599 74.8896 43.1795 74.9576C42.999 75.0256 42.8342 75.1294 42.6949 75.2628C42.5557 75.3962 42.4448 75.5564 42.3691 75.7338C42.2934 75.9111 42.2544 76.102 42.2544 76.2948C42.2544 76.4876 42.2934 76.6785 42.3691 76.8559C42.4448 77.0332 42.5557 77.1934 42.6949 77.3268C42.8342 77.4602 42.999 77.564 43.1795 77.632C43.3599 77.7 43.5523 77.7308 43.7449 77.7225H57.9687C58.1614 77.7308 58.3537 77.7 58.5342 77.632C58.7146 77.564 58.8794 77.4602 59.0187 77.3268C59.158 77.1934 59.2687 77.0332 59.3444 76.8559C59.4201 76.6785 59.4592 76.4876 59.4592 76.2948C59.4592 76.102 59.4201 75.9111 59.3444 75.7338C59.2687 75.5564 59.158 75.3962 59.0187 75.2628C58.8794 75.1294 58.7146 75.0256 58.5342 74.9576C58.3537 74.8896 58.1614 74.8588 57.9687 74.8671H43.7449Z" fill="white"/>
<path fill-rule="evenodd" clip-rule="evenodd" d="M53.716 52.0156C52.9625 52.0156 52.2259 51.7921 51.5994 51.3735C50.9729 50.9549 50.4846 50.3599 50.1963 49.6637C49.9079 48.9676 49.8324 48.2016 49.9794 47.4625C50.1264 46.7235 50.4893 46.0447 51.0221 45.5119C51.5549 44.979 52.2338 44.6162 52.9728 44.4692C53.7118 44.3222 54.4779 44.3976 55.174 44.686C55.8702 44.9744 56.4651 45.4627 56.8837 46.0892C57.3024 46.7157 57.5258 47.4523 57.5258 48.2058C57.5251 49.216 57.1235 50.1846 56.4091 50.8989C55.6948 51.6133 54.7262 52.0149 53.716 52.0156Z" fill="white"/>
<path fill-rule="evenodd" clip-rule="evenodd" d="M48.0012 52.0156C47.2477 52.0156 46.5111 51.7921 45.8846 51.3735C45.2581 50.9549 44.7697 50.3599 44.4813 49.6637C44.193 48.9676 44.1176 48.2016 44.2646 47.4625C44.4116 46.7235 44.7744 46.0447 45.3073 45.5119C45.8401 44.979 46.5188 44.6162 47.2579 44.4692C47.9969 44.3222 48.7629 44.3976 49.4591 44.686C50.1552 44.9744 50.7503 45.4627 51.1689 46.0892C51.5875 46.7157 51.811 47.4523 51.811 48.2058C51.8096 49.2158 51.4077 50.184 50.6936 50.8982C49.9794 51.6123 49.0112 52.0142 48.0012 52.0156Z" fill="white"/>
</svg>
