<svg width="88" height="86" viewBox="0 0 88 86" fill="none" xmlns="http://www.w3.org/2000/svg">
<path fill-rule="evenodd" clip-rule="evenodd" d="M73.0875 85.5155H17.7813C17.6515 85.5172 17.5225 85.4933 17.4019 85.4452C17.2813 85.3971 17.1713 85.3257 17.0783 85.2351C16.9853 85.1445 16.9111 85.0365 16.8598 84.9172C16.8085 84.7979 16.7812 84.6696 16.7795 84.5398V1.58054C16.7795 1.31831 16.8837 1.06682 17.0691 0.8814C17.2546 0.695977 17.5061 0.591797 17.7683 0.591797H73.0744C73.3362 0.592488 73.587 0.696975 73.7719 0.882323C73.9567 1.06767 74.0606 1.31876 74.0606 1.58054V84.5398C74.0606 84.8013 73.9567 85.0521 73.7717 85.2371C73.5868 85.422 73.336 85.5259 73.0744 85.5259L73.0875 85.5155ZM18.7649 83.5406H72.0988V2.54838H18.7649V83.5406Z" fill="white"/>
<path fill-rule="evenodd" clip-rule="evenodd" d="M41.2282 32.6465C41.0975 32.649 40.9677 32.6253 40.8463 32.5769C40.7249 32.5286 40.6143 32.4564 40.5212 32.3647L34.5862 26.4271C33.9382 25.7792 33.5742 24.9004 33.5742 23.984C33.5742 23.0677 33.9382 22.1888 34.5862 21.5409C35.2342 20.8929 36.113 20.5289 37.0293 20.5289C37.9457 20.5289 38.8245 20.8929 39.4724 21.5409L41.2177 23.2835L52.0441 12.4597C52.6924 11.8111 53.5719 11.4465 54.489 11.4463C55.4061 11.446 56.2857 11.8101 56.9343 12.4584C57.583 13.1067 57.9475 13.9861 57.9478 14.9032C57.948 15.8203 57.5839 16.6999 56.9356 17.3486L41.9273 32.3647C41.7407 32.5475 41.4893 32.6488 41.2282 32.6465Z" fill="white"/>
<path fill-rule="evenodd" clip-rule="evenodd" d="M34.5684 49.9574H26.6664C26.5365 49.9578 26.4078 49.9324 26.2876 49.8829C26.1675 49.8333 26.0584 49.7605 25.9665 49.6686C25.8746 49.5767 25.8018 49.4676 25.7523 49.3475C25.7027 49.2274 25.6774 49.0986 25.6777 48.9687V41.0693C25.6777 40.8071 25.7819 40.5556 25.9673 40.3702C26.1527 40.1847 26.4042 40.0806 26.6664 40.0806H34.5684C34.8302 40.0813 35.081 40.1857 35.2659 40.3711C35.4508 40.5564 35.5545 40.8075 35.5545 41.0693V48.9687C35.5549 49.0984 35.5296 49.2269 35.4802 49.3469C35.4308 49.4668 35.3583 49.5758 35.2667 49.6677C35.1751 49.7595 35.0662 49.8324 34.9464 49.8821C34.8266 49.9318 34.6981 49.9574 34.5684 49.9574ZM27.6525 47.9826H33.5797V42.0554H27.6525V47.9826Z" fill="white"/>
<path fill-rule="evenodd" clip-rule="evenodd" d="M58.2717 44.0331H39.5041C39.2419 44.0331 38.9904 43.929 38.805 43.7436C38.6196 43.5581 38.5154 43.3066 38.5154 43.0444C38.5154 42.7822 38.6196 42.5307 38.805 42.3453C38.9904 42.1598 39.2419 42.0557 39.5041 42.0557H58.2717C58.4056 42.0488 58.5396 42.0692 58.6653 42.1157C58.7911 42.1623 58.9061 42.2339 59.0034 42.3262C59.1006 42.4186 59.1781 42.5298 59.231 42.653C59.2839 42.7763 59.3112 42.909 59.3112 43.0431C59.3112 43.1772 59.2839 43.3099 59.231 43.4332C59.1781 43.5564 59.1006 43.6676 59.0034 43.76C58.9061 43.8523 58.7911 43.9239 58.6653 43.9705C58.5396 44.017 58.4056 44.0374 58.2717 44.0305V44.0331Z" fill="white"/>
<path fill-rule="evenodd" clip-rule="evenodd" d="M66.1742 48.9684H39.5046C39.2515 48.9554 39.013 48.8457 38.8385 48.6619C38.6639 48.4782 38.5667 48.2344 38.5667 47.981C38.5667 47.7275 38.6639 47.4838 38.8385 47.3C39.013 47.1163 39.2515 47.0065 39.5046 46.9935H66.1742C66.4273 47.0065 66.6657 47.1163 66.8403 47.3C67.0148 47.4838 67.1121 47.7275 67.1121 47.981C67.1121 48.2344 67.0148 48.4782 66.8403 48.6619C66.6657 48.8457 66.4273 48.9554 66.1742 48.9684Z" fill="white"/>
<path fill-rule="evenodd" clip-rule="evenodd" d="M34.5684 62.7985H26.6664C26.5367 62.7989 26.4082 62.7736 26.2883 62.7242C26.1683 62.6748 26.0593 62.6022 25.9675 62.5106C25.8756 62.419 25.8027 62.3102 25.753 62.1904C25.7033 62.0706 25.6777 61.9421 25.6777 61.8124V53.9104C25.6777 53.7807 25.7033 53.6523 25.753 53.5324C25.8027 53.4126 25.8756 53.3038 25.9675 53.2122C26.0593 53.1206 26.1683 53.048 26.2883 52.9986C26.4082 52.9492 26.5367 52.924 26.6664 52.9243H34.5684C34.83 52.9243 35.0808 53.0282 35.2657 53.2131C35.4506 53.3981 35.5545 53.6489 35.5545 53.9104V61.8124C35.5545 62.074 35.4506 62.3248 35.2657 62.5097C35.0808 62.6946 34.83 62.7985 34.5684 62.7985Z" fill="white"/>
<path fill-rule="evenodd" clip-rule="evenodd" d="M58.2722 56.8714H39.5046C39.2515 56.8584 39.013 56.7487 38.8385 56.565C38.6639 56.3812 38.5667 56.1374 38.5667 55.884C38.5667 55.6306 38.6639 55.3868 38.8385 55.203C39.013 55.0193 39.2515 54.9096 39.5046 54.8966H58.2722C58.4061 54.8897 58.5401 54.9101 58.6659 54.9566C58.7916 55.0031 58.9066 55.0748 59.0039 55.1671C59.1011 55.2595 59.1786 55.3707 59.2315 55.4939C59.2844 55.6172 59.3117 55.7499 59.3117 55.884C59.3117 56.0181 59.2844 56.1508 59.2315 56.2741C59.1786 56.3973 59.1011 56.5085 59.0039 56.6008C58.9066 56.6932 58.7916 56.7648 58.6659 56.8113C58.5401 56.8579 58.4061 56.8783 58.2722 56.8714Z" fill="white"/>
<path fill-rule="evenodd" clip-rule="evenodd" d="M66.1742 61.8102H39.5046C39.2515 61.7972 39.013 61.6875 38.8385 61.5037C38.6639 61.32 38.5667 61.0762 38.5667 60.8228C38.5667 60.5694 38.6639 60.3256 38.8385 60.1418C39.013 59.9581 39.2515 59.8484 39.5046 59.8354H66.1742C66.4273 59.8484 66.6657 59.9581 66.8403 60.1418C67.0148 60.3256 67.1121 60.5694 67.1121 60.8228C67.1121 61.0762 67.0148 61.32 66.8403 61.5037C66.6657 61.6875 66.4273 61.7972 66.1742 61.8102Z" fill="white"/>
<path fill-rule="evenodd" clip-rule="evenodd" d="M34.5684 75.639H26.6664C26.5365 75.6394 26.4078 75.6141 26.2876 75.5645C26.1675 75.5149 26.0584 75.4421 25.9665 75.3502C25.8746 75.2583 25.8018 75.1492 25.7523 75.0291C25.7027 74.909 25.6774 74.7802 25.6777 74.6503V66.7509C25.6777 66.4887 25.7819 66.2372 25.9673 66.0518C26.1527 65.8664 26.4042 65.7622 26.6664 65.7622H34.5684C34.8302 65.7629 35.081 65.8674 35.2659 66.0527C35.4508 66.238 35.5545 66.4892 35.5545 66.7509V74.6503C35.5549 74.78 35.5296 74.9086 35.4802 75.0285C35.4308 75.1484 35.3583 75.2574 35.2667 75.3493C35.1751 75.4411 35.0662 75.514 34.9464 75.5637C34.8266 75.6135 34.6981 75.639 34.5684 75.639Z" fill="white"/>
<path fill-rule="evenodd" clip-rule="evenodd" d="M49.389 69.7115H39.5122C39.3782 69.7184 39.2443 69.698 39.1185 69.6515C38.9927 69.6049 38.8777 69.5333 38.7805 69.441C38.6832 69.3486 38.6058 69.2374 38.5529 69.1142C38.5 68.9909 38.4727 68.8582 38.4727 68.7241C38.4727 68.59 38.5 68.4573 38.5529 68.334C38.6058 68.2108 38.6832 68.0996 38.7805 68.0072C38.8777 67.9148 38.9927 67.8432 39.1185 67.7967C39.2443 67.7502 39.3782 67.7298 39.5122 67.7367H49.389C49.523 67.7298 49.6569 67.7502 49.7827 67.7967C49.9085 67.8432 50.0235 67.9148 50.1208 68.0072C50.218 68.0996 50.2954 68.2108 50.3483 68.334C50.4013 68.4573 50.4285 68.59 50.4285 68.7241C50.4285 68.8582 50.4013 68.9909 50.3483 69.1142C50.2954 69.2374 50.218 69.3486 50.1208 69.441C50.0235 69.5333 49.9085 69.6049 49.7827 69.6515C49.6569 69.698 49.523 69.7184 49.389 69.7115Z" fill="white"/>
<path fill-rule="evenodd" clip-rule="evenodd" d="M56.2973 74.6506H39.5046C39.2515 74.6376 39.013 74.5278 38.8385 74.3441C38.6639 74.1603 38.5667 73.9166 38.5667 73.6632C38.5667 73.4097 38.6639 73.166 38.8385 72.9822C39.013 72.7985 39.2515 72.6888 39.5046 72.6757H56.2973C56.4313 72.6689 56.5652 72.6893 56.691 72.7358C56.8168 72.7823 56.9318 72.8539 57.0291 72.9463C57.1263 73.0387 57.2037 73.1499 57.2566 73.2731C57.3095 73.3963 57.3368 73.5291 57.3368 73.6632C57.3368 73.7973 57.3095 73.93 57.2566 74.0532C57.2037 74.1765 57.1263 74.2876 57.0291 74.38C56.9318 74.4724 56.8168 74.544 56.691 74.5905C56.5652 74.637 56.4313 74.6575 56.2973 74.6506Z" fill="white"/>
<path fill-rule="evenodd" clip-rule="evenodd" d="M82.9635 19.339C81.9868 19.339 81.0321 19.0494 80.2199 18.5068C79.4078 17.9642 78.7748 17.1929 78.401 16.2905C78.0273 15.3881 77.9295 14.3952 78.12 13.4372C78.3106 12.4792 78.7809 11.5993 79.4716 10.9087C80.1622 10.218 81.0421 9.74766 82.0001 9.55711C82.9581 9.36656 83.951 9.46437 84.8534 9.83815C85.7558 10.2119 86.5271 10.8449 87.0697 11.657C87.6123 12.4691 87.902 13.4239 87.902 14.4006C87.9006 15.71 87.3798 16.9653 86.454 17.8911C85.5282 18.8169 84.2729 19.3377 82.9635 19.339ZM82.9635 11.4397C82.3774 11.4397 81.8044 11.6135 81.3171 11.9391C80.8297 12.2648 80.4499 12.7276 80.2256 13.2691C80.0013 13.8107 79.9426 14.4065 80.0569 14.9814C80.1713 15.5563 80.4535 16.0844 80.868 16.4988C81.2825 16.9133 81.8105 17.1955 82.3854 17.3099C82.9603 17.4242 83.5562 17.3655 84.0977 17.1412C84.6392 16.9169 85.102 16.5371 85.4277 16.0497C85.7533 15.5624 85.9272 14.9894 85.9272 14.4033C85.9272 13.6173 85.6149 12.8635 85.0591 12.3077C84.5033 11.7519 83.7495 11.4397 82.9635 11.4397Z" fill="white"/>
<path fill-rule="evenodd" clip-rule="evenodd" d="M6.91325 74.6497C5.54593 74.6497 4.20931 74.2442 3.07243 73.4846C1.93555 72.725 1.0495 71.6453 0.526255 70.382C0.00300591 69.1188 -0.133914 67.7288 0.132836 66.3877C0.399586 65.0467 1.058 63.8149 2.02484 62.848C2.99168 61.8812 4.22348 61.2228 5.56453 60.956C6.90557 60.6893 8.29561 60.8262 9.55884 61.3494C10.8221 61.8727 11.9018 62.7588 12.6614 63.8956C13.4211 65.0325 13.8265 66.3691 13.8265 67.7364C13.8244 69.5693 13.0955 71.3265 11.7994 72.6226C10.5034 73.9186 8.74612 74.6476 6.91325 74.6497ZM6.91325 62.798C5.93578 62.7975 4.98016 63.0869 4.16721 63.6296C3.35426 64.1724 2.72052 64.9441 2.34622 65.847C1.97193 66.75 1.87389 67.7437 2.06446 68.7024C2.25502 69.6611 2.72563 70.5417 3.4168 71.2329C4.10798 71.9241 4.98866 72.3947 5.94737 72.5853C6.90608 72.7758 7.89974 72.6778 8.8027 72.3035C9.70566 71.9292 10.4773 71.2955 11.02 70.4825C11.5628 69.6696 11.8522 68.7139 11.8517 67.7364C11.8469 66.4282 11.325 65.1749 10.3999 64.2498C9.47485 63.3247 8.22152 62.8028 6.91325 62.798Z" fill="white"/>
</svg>
