<svg width="85" height="86" viewBox="0 0 85 86" fill="none" xmlns="http://www.w3.org/2000/svg">
<path fill-rule="evenodd" clip-rule="evenodd" d="M43.4994 85.5917H13.8494C13.7195 85.592 13.5908 85.5667 13.4707 85.5171C13.3506 85.4675 13.2414 85.3946 13.1495 85.3028C13.0576 85.2109 12.9849 85.1018 12.9353 84.9817C12.8857 84.8615 12.8603 84.7328 12.8606 84.6028V56.9281C12.8539 56.7942 12.8744 56.6603 12.921 56.5346C12.9676 56.4089 13.0392 56.294 13.1316 56.1968C13.224 56.0997 13.3351 56.0223 13.4583 55.9695C13.5815 55.9166 13.7142 55.8893 13.8482 55.8893C13.9823 55.8893 14.115 55.9166 14.2382 55.9695C14.3614 56.0223 14.4725 56.0997 14.5648 56.1968C14.6572 56.294 14.7289 56.4089 14.7754 56.5346C14.822 56.6603 14.8426 56.7942 14.8358 56.9281V83.614H42.5105V39.1366C42.5105 38.8744 42.6147 38.6228 42.8001 38.4374C42.9856 38.252 43.2371 38.1478 43.4994 38.1478C43.7616 38.1478 44.0132 38.252 44.1986 38.4374C44.384 38.6228 44.4882 38.8744 44.4882 39.1366V84.6028C44.4875 84.8649 44.3832 85.116 44.1979 85.3013C44.0126 85.4866 43.7614 85.591 43.4994 85.5917Z" fill="white"/>
<path fill-rule="evenodd" clip-rule="evenodd" d="M35.5924 57.9174H3.95985C3.78772 57.9175 3.6186 57.8726 3.46914 57.7872C3.31967 57.7019 3.19503 57.5789 3.10763 57.4306C3.02024 57.2824 2.97307 57.1138 2.97079 56.9417C2.96851 56.7696 3.01115 56.5998 3.09458 56.4493L12.9779 38.6578C13.0646 38.5047 13.1904 38.3773 13.3424 38.2886C13.4944 38.2 13.6672 38.1533 13.8432 38.1533H43.4931C43.6578 38.1532 43.8198 38.1944 43.9645 38.273C44.1092 38.3516 44.2319 38.4651 44.3214 38.6033C44.411 38.7415 44.4645 38.8999 44.4771 39.0641C44.4897 39.2283 44.461 39.393 44.3936 39.5432L36.5006 57.3296C36.4233 57.5046 36.2967 57.6534 36.1364 57.7578C35.976 57.8621 35.7888 57.9176 35.5975 57.9174H35.5924ZM5.64495 55.9423H34.9517L41.9796 40.1285H14.4308L5.64495 55.9423Z" fill="white"/>
<path fill-rule="evenodd" clip-rule="evenodd" d="M43.5 77.6828H13.8501C13.5879 77.6828 13.3363 77.5786 13.1509 77.3931C12.9655 77.2077 12.8613 76.9561 12.8613 76.6939C12.8613 76.4316 12.9655 76.1802 13.1509 75.9947C13.3363 75.8093 13.5879 75.7051 13.8501 75.7051H43.5C43.7623 75.7051 44.0138 75.8093 44.1993 75.9947C44.3847 76.1802 44.4889 76.4316 44.4889 76.6939C44.4889 76.9561 44.3847 77.2077 44.1993 77.3931C44.0138 77.5786 43.7623 77.6828 43.5 77.6828Z" fill="white"/>
<path fill-rule="evenodd" clip-rule="evenodd" d="M73.1543 85.5918H43.5044C43.2422 85.5918 42.9906 85.4876 42.8052 85.3021C42.6198 85.1167 42.5156 84.8652 42.5156 84.603V39.1368C42.5156 38.8745 42.6198 38.623 42.8052 38.4375C42.9906 38.2521 43.2422 38.1479 43.5044 38.1479C43.7667 38.1479 44.0182 38.2521 44.2037 38.4375C44.3891 38.623 44.4933 38.8745 44.4933 39.1368V83.6141H72.1655V56.9282C72.1655 56.666 72.2697 56.4144 72.4551 56.229C72.6405 56.0435 72.8921 55.9393 73.1543 55.9393C73.4166 55.9393 73.6681 56.0435 73.8536 56.229C74.039 56.4144 74.1432 56.666 74.1432 56.9282V84.603C74.1425 84.865 74.0381 85.1161 73.8528 85.3014C73.6675 85.4867 73.4164 85.5911 73.1543 85.5918Z" fill="white"/>
<path fill-rule="evenodd" clip-rule="evenodd" d="M83.0363 57.9156H51.4087C51.2174 57.9157 51.0302 57.8603 50.8698 57.7559C50.7095 57.6516 50.5829 57.5028 50.5056 57.3278L42.6 39.5389C42.5325 39.3884 42.5039 39.2235 42.5166 39.0591C42.5294 38.8947 42.5831 38.7361 42.6729 38.5979C42.7628 38.4596 42.8858 38.3461 43.0309 38.2677C43.1759 38.1892 43.3382 38.1484 43.5031 38.1489H73.153C73.3286 38.1488 73.5012 38.1956 73.6528 38.2842C73.8045 38.3729 73.9297 38.5003 74.0157 38.6534L83.9015 56.4449C83.9841 56.5956 84.0262 56.7651 84.0236 56.937C84.0209 57.1088 83.9736 57.277 83.8863 57.425C83.7991 57.5731 83.6749 57.6959 83.5258 57.7815C83.3768 57.867 83.2082 57.9123 83.0363 57.913V57.9156ZM52.052 55.9404H81.3563L72.5753 40.1266H45.0217L52.052 55.9404Z" fill="white"/>
<path fill-rule="evenodd" clip-rule="evenodd" d="M73.1543 77.6828H43.5044C43.2422 77.6828 42.9906 77.5786 42.8052 77.3931C42.6198 77.2077 42.5156 76.9561 42.5156 76.6939C42.5156 76.4316 42.6198 76.1802 42.8052 75.9947C42.9906 75.8093 43.2422 75.7051 43.5044 75.7051H73.1543C73.4166 75.7051 73.6681 75.8093 73.8536 75.9947C74.039 76.1802 74.1432 76.4316 74.1432 76.6939C74.1432 76.9561 74.039 77.2077 73.8536 77.3931C73.6681 77.5786 73.4166 77.6828 73.1543 77.6828Z" fill="white"/>
<path fill-rule="evenodd" clip-rule="evenodd" d="M22.9708 39.7592C22.7754 39.759 22.5844 39.7009 22.422 39.5923C22.2595 39.4836 22.1329 39.3292 22.0581 39.1487C21.9834 38.9681 21.9639 38.7694 22.002 38.5777C22.0401 38.386 22.134 38.2099 22.2721 38.0717L26.1114 34.2298C25.6296 33.2965 25.2246 32.3255 24.9005 31.3264H19.4771C19.215 31.3257 18.964 31.2213 18.7787 31.036C18.5934 30.8507 18.4889 30.5996 18.4883 30.3375V20.4795C18.4883 20.2172 18.5925 19.9657 18.778 19.7803C18.9634 19.5948 19.2148 19.4906 19.4771 19.4906H24.8981C25.2202 18.492 25.6243 17.5217 26.1064 16.5897L22.262 12.7454C22.0767 12.5595 21.9727 12.3078 21.9727 12.0454C21.9727 11.7829 22.0767 11.5312 22.262 11.3454L29.2343 4.3756C29.3258 4.28341 29.4346 4.21028 29.5546 4.16048C29.6745 4.11069 29.8032 4.08524 29.9331 4.08553C30.0625 4.08544 30.1907 4.111 30.3102 4.16079C30.4297 4.21059 30.5382 4.2836 30.6293 4.3756L34.4736 8.21994C35.4066 7.73918 36.3767 7.33426 37.3745 7.00912V1.58064C37.3752 1.31859 37.4796 1.06747 37.6649 0.882172C37.8502 0.696874 38.1013 0.592463 38.3634 0.591797H48.2215C48.4835 0.592463 48.7347 0.696874 48.92 0.882172C49.1053 1.06747 49.2096 1.31859 49.2103 1.58064V7.00407C50.2095 7.32765 51.1807 7.73263 52.1138 8.21489L55.953 4.3756C56.1388 4.19029 56.3905 4.08621 56.653 4.08621C56.9154 4.08621 57.1673 4.19029 57.3531 4.3756L64.3228 11.3454C64.4148 11.437 64.4878 11.5459 64.5376 11.6658C64.5874 11.7857 64.613 11.9143 64.613 12.0441C64.613 12.1739 64.5874 12.3025 64.5376 12.4224C64.4878 12.5423 64.4148 12.6512 64.3228 12.7428L60.481 16.5872C60.961 17.5202 61.365 18.4903 61.6893 19.4881H67.1178C67.2478 19.4878 67.3764 19.5132 67.4966 19.5627C67.6167 19.6123 67.7259 19.6851 67.8178 19.777C67.9097 19.8689 67.9824 19.978 68.032 20.0982C68.0816 20.2183 68.107 20.347 68.1066 20.477V30.335C68.107 30.465 68.0816 30.5937 68.032 30.7138C67.9824 30.8339 67.9097 30.9431 67.8178 31.035C67.7259 31.1269 67.6167 31.1997 67.4966 31.2493C67.3764 31.2989 67.2478 31.3242 67.1178 31.3239H61.6968C61.3728 32.3238 60.9679 33.2957 60.4861 34.2298L64.3253 38.0691C64.417 38.1611 64.4899 38.2701 64.5395 38.3902C64.5891 38.5102 64.6145 38.6389 64.6144 38.7687C64.6143 38.8986 64.5886 39.0272 64.5387 39.1472C64.4889 39.2671 64.416 39.3761 64.3241 39.4679C64.2321 39.5596 64.123 39.6324 64.0029 39.682C63.8829 39.7316 63.7543 39.7571 63.6244 39.7569C63.4946 39.7568 63.366 39.7311 63.2461 39.6813C63.1261 39.6315 63.0171 39.5586 62.9253 39.4666L58.5664 35.1077C58.4131 34.9547 58.3142 34.7555 58.285 34.5409C58.2558 34.3262 58.298 34.108 58.405 33.9196C59.0951 32.706 59.6339 31.4123 60.0093 30.0677C60.0681 29.8603 60.1931 29.6778 60.3652 29.548C60.5374 29.4182 60.7473 29.3482 60.9628 29.3487H66.129V21.4658H60.9704C60.7548 21.466 60.5451 21.3956 60.3734 21.2653C60.2016 21.135 60.0773 20.952 60.0194 20.7443C59.6413 19.4022 59.1026 18.1105 58.4151 16.8974C58.3088 16.7095 58.2669 16.492 58.2956 16.278C58.3243 16.064 58.422 15.8652 58.574 15.7119L62.2316 12.0466L56.6594 6.47184L52.9941 10.1371C52.8409 10.2894 52.6422 10.3874 52.4281 10.4161C52.214 10.4448 51.9964 10.4026 51.8086 10.296C50.5952 9.60655 49.3025 9.06702 47.9591 8.68916C47.7514 8.63127 47.5685 8.50692 47.4382 8.33517C47.3079 8.16342 47.2375 7.95374 47.2377 7.73816V2.56949H39.3548V7.74321C39.355 7.95879 39.2845 8.16847 39.1542 8.34022C39.0239 8.51197 38.841 8.63632 38.6333 8.69421C37.2922 9.07296 36.0014 9.61157 34.7889 10.2985C34.6007 10.4054 34.3827 10.4477 34.1682 10.419C33.9536 10.3903 33.7544 10.2922 33.6008 10.1396L29.9432 6.47184L24.3709 12.0441L28.0387 15.7119C28.191 15.865 28.289 16.0638 28.3177 16.2779C28.3464 16.492 28.3042 16.7096 28.1976 16.8974C27.51 18.1105 26.9714 19.4022 26.5933 20.7443C26.5354 20.952 26.411 21.135 26.2393 21.2653C26.0675 21.3956 25.8579 21.466 25.6423 21.4658H20.4685V29.3487H25.6346C25.8502 29.3482 26.06 29.4182 26.2321 29.548C26.4043 29.6778 26.5294 29.8603 26.5882 30.0677C26.9645 31.4116 27.5041 32.7044 28.195 33.9171C28.2987 34.1063 28.339 34.3238 28.3099 34.5377C28.2809 34.7515 28.1841 34.9504 28.0336 35.1052L23.6722 39.4666C23.5808 39.5598 23.4716 39.6337 23.3512 39.684C23.2307 39.7342 23.1013 39.7598 22.9708 39.7592Z" fill="white"/>
<path fill-rule="evenodd" clip-rule="evenodd" d="M43.3128 21.1992C42.4801 21.1982 41.6658 21.4442 40.9729 21.906C40.28 22.3678 39.7397 23.0247 39.4201 23.7936C39.1005 24.5625 39.0161 25.4089 39.1776 26.2258C39.339 27.0426 39.739 27.7933 40.3271 28.3828C40.9152 28.9723 41.6649 29.3741 42.4814 29.5376C43.2979 29.701 44.1446 29.6186 44.9142 29.3009C45.6839 28.9832 46.3421 28.4444 46.8055 27.7526C47.269 27.0608 47.5168 26.2471 47.5178 25.4144C47.5165 24.2986 47.0734 23.2288 46.2854 22.4389C45.4974 21.649 44.4285 21.2032 43.3128 21.1992Z" fill="white"/>
<path fill-rule="evenodd" clip-rule="evenodd" d="M43.3104 36.5603C41.1031 36.5633 38.9444 35.9113 37.1078 34.6869C35.2712 33.4624 33.8391 31.7206 32.9929 29.6819C32.1467 27.6432 31.9243 25.3992 32.354 23.2341C32.7837 21.069 33.8463 19.08 35.4069 17.519C36.9676 15.958 38.9563 14.8951 41.1213 14.4649C43.2864 14.0347 45.5303 14.2565 47.5692 15.1022C49.6081 15.948 51.3502 17.3797 52.5751 19.216C53.7999 21.0524 54.4525 23.2109 54.45 25.4182C54.4433 28.3708 53.2676 31.2006 51.1801 33.2886C49.0925 35.3766 46.263 36.553 43.3104 36.5603ZM43.3104 31.5934C44.5344 31.5924 45.7306 31.2285 46.7476 30.5476C47.7647 29.8667 48.557 28.8995 49.0243 27.7683C49.4917 26.6371 49.6131 25.3927 49.3731 24.1925C49.1332 22.9924 48.5427 21.8903 47.6763 21.0258C46.81 20.1612 45.7067 19.5729 44.5061 19.3354C43.3054 19.0979 42.0613 19.2219 40.931 19.6915C39.8008 20.1612 38.8351 20.9555 38.1564 21.9739C37.4776 22.9924 37.1162 24.1892 37.1177 25.4132C37.1197 27.0538 37.7731 28.6265 38.9344 29.7855C40.0957 30.9444 41.6698 31.5947 43.3104 31.5934Z" fill="white"/>
<path fill-rule="evenodd" clip-rule="evenodd" d="M77.1121 12.4528C75.9391 12.4528 74.7925 12.1049 73.8173 11.4533C72.842 10.8016 72.0819 9.87542 71.6331 8.79176C71.1842 7.70811 71.0668 6.51568 71.2956 5.36528C71.5244 4.21487 72.0892 3.1582 72.9186 2.32881C73.748 1.49942 74.8047 0.934587 75.9551 0.705758C77.1055 0.476929 78.298 0.59435 79.3816 1.04321C80.4653 1.49208 81.3915 2.2522 82.0431 3.22746C82.6948 4.20273 83.0425 5.34934 83.0425 6.52228C83.0405 8.09453 82.4151 9.60179 81.3033 10.7135C80.1916 11.8253 78.6843 12.4508 77.1121 12.4528ZM77.1121 10.6265C77.9238 10.6265 78.7173 10.3858 79.3922 9.93479C80.0671 9.48382 80.5933 8.84283 80.9039 8.09289C81.2145 7.34295 81.2958 6.51774 81.1374 5.72161C80.9791 4.92548 80.5881 4.19417 80.0141 3.62019C79.4401 3.04621 78.7089 2.65536 77.9128 2.497C77.1167 2.33864 76.2915 2.4199 75.5415 2.73053C74.7916 3.04117 74.1506 3.56722 73.6996 4.24214C73.2487 4.91707 73.0079 5.71055 73.0079 6.52228C73.0092 7.61036 73.442 8.6535 74.2114 9.42289C74.9808 10.1923 76.024 10.6251 77.1121 10.6265Z" fill="white"/>
<path fill-rule="evenodd" clip-rule="evenodd" d="M7.91825 25.3029C6.35374 25.3049 4.82385 24.8428 3.52204 23.975C2.22022 23.1073 1.20496 21.8729 0.604863 20.428C0.00476625 18.9832 -0.153265 17.3928 0.150733 15.8582C0.45473 14.3235 1.20718 12.9134 2.31275 11.8064C3.41832 10.6994 4.82731 9.94522 6.36162 9.63926C7.89592 9.3333 9.4865 9.48935 10.9321 10.0876C12.3777 10.6859 13.6135 11.6995 14.4829 13.0002C15.3523 14.3009 15.8163 15.8303 15.8163 17.3948C15.8137 19.4913 14.9796 21.5012 13.4971 22.9837C12.0147 24.4662 10.0047 25.3002 7.90815 25.3029H7.91825ZM7.91825 23.4766C9.12123 23.4771 10.2973 23.1208 11.2978 22.4528C12.2983 21.7849 13.0782 20.8352 13.5389 19.7239C13.9996 18.6127 14.1205 17.3897 13.8861 16.2098C13.6517 15.0299 13.0727 13.9459 12.2222 13.0951C11.3717 12.2443 10.288 11.6649 9.1082 11.43C7.92837 11.1951 6.70535 11.3154 5.59389 11.7756C4.48244 12.2358 3.53245 13.0154 2.86406 14.0156C2.19567 15.0158 1.83891 16.1918 1.83891 17.3948C1.84091 19.0067 2.48197 20.5521 3.62156 21.6921C4.76115 22.8322 6.3063 23.4739 7.91825 23.4766Z" fill="white"/>
</svg>
