<svg width="168" height="169" viewBox="0 0 168 169" fill="none" xmlns="http://www.w3.org/2000/svg">
<ellipse cx="2.46661" cy="2.8287" rx="2.46661" ry="2.47884" fill="#F83718"/>
<ellipse cx="17.2674" cy="2.8287" rx="2.46661" ry="2.47884" fill="#F83718"/>
<ellipse cx="32.0643" cy="2.8287" rx="2.46661" ry="2.47884" fill="#F83718"/>
<ellipse cx="46.8651" cy="2.8287" rx="2.46661" ry="2.47884" fill="#F83718"/>
<ellipse cx="61.6639" cy="2.8287" rx="2.46661" ry="2.47884" fill="#F83718"/>
<ellipse cx="76.4647" cy="2.8287" rx="2.46661" ry="2.47884" fill="#F83718"/>
<ellipse cx="91.2674" cy="2.8287" rx="2.46661" ry="2.47884" fill="#F83718"/>
<ellipse cx="106.064" cy="2.8287" rx="2.46661" ry="2.47884" fill="#F83718"/>
<ellipse cx="2.46661" cy="17.7012" rx="2.46661" ry="2.47884" fill="#F83718"/>
<ellipse cx="17.2694" cy="17.7011" rx="2.46661" ry="2.47884" fill="#F83718"/>
<ellipse cx="32.0643" cy="17.7011" rx="2.46661" ry="2.47884" fill="#F83718"/>
<ellipse cx="46.8651" cy="17.7012" rx="2.46661" ry="2.47884" fill="#F83718"/>
<ellipse cx="61.6639" cy="17.7011" rx="2.46661" ry="2.47884" fill="#F83718"/>
<ellipse cx="76.4647" cy="17.7011" rx="2.46661" ry="2.47884" fill="#F83718"/>
<ellipse cx="91.2674" cy="17.7011" rx="2.46661" ry="2.47884" fill="#F83718"/>
<ellipse cx="106.064" cy="17.7011" rx="2.46661" ry="2.47884" fill="#F83718"/>
<ellipse cx="2.46661" cy="32.5755" rx="2.46661" ry="2.47884" fill="#F83718"/>
<ellipse cx="17.2694" cy="32.5755" rx="2.46661" ry="2.47884" fill="#F83718"/>
<ellipse cx="32.0643" cy="32.5755" rx="2.46661" ry="2.47884" fill="#F83718"/>
<ellipse cx="46.8651" cy="32.5755" rx="2.46661" ry="2.47884" fill="#F83718"/>
<ellipse cx="61.6639" cy="32.5755" rx="2.46661" ry="2.47884" fill="#F83718"/>
<ellipse cx="76.4647" cy="32.5755" rx="2.46661" ry="2.47884" fill="#F83718"/>
<ellipse cx="91.2674" cy="32.5755" rx="2.46661" ry="2.47884" fill="#F83718"/>
<ellipse cx="106.064" cy="32.5755" rx="2.46661" ry="2.47884" fill="#F83718"/>
<ellipse cx="2.46661" cy="47.4489" rx="2.46661" ry="2.47884" fill="#F83718"/>
<ellipse cx="17.2694" cy="47.4489" rx="2.46661" ry="2.47884" fill="#F83718"/>
<ellipse cx="32.0643" cy="47.4489" rx="2.46661" ry="2.47884" fill="#F83718"/>
<ellipse cx="46.8651" cy="47.4489" rx="2.46661" ry="2.47884" fill="#F83718"/>
<ellipse cx="61.6639" cy="47.4489" rx="2.46661" ry="2.47884" fill="#F83718"/>
<ellipse cx="76.4647" cy="47.4489" rx="2.46661" ry="2.47884" fill="#F83718"/>
<ellipse cx="91.2674" cy="47.4489" rx="2.46661" ry="2.47884" fill="#F83718"/>
<ellipse cx="106.064" cy="47.4489" rx="2.46661" ry="2.47884" fill="#F83718"/>
<ellipse cx="2.46661" cy="62.3202" rx="2.46661" ry="2.47884" fill="#F83718"/>
<ellipse cx="17.2694" cy="62.3203" rx="2.46661" ry="2.47884" fill="#F83718"/>
<ellipse cx="32.0643" cy="62.3203" rx="2.46661" ry="2.47884" fill="#F83718"/>
<ellipse cx="46.8651" cy="62.3202" rx="2.46661" ry="2.47884" fill="#F83718"/>
<ellipse cx="61.6639" cy="62.3203" rx="2.46661" ry="2.47884" fill="#F83718"/>
<ellipse cx="76.4647" cy="62.3203" rx="2.46661" ry="2.47884" fill="#F83718"/>
<ellipse cx="91.2674" cy="62.3203" rx="2.46661" ry="2.47884" fill="#F83718"/>
<ellipse cx="106.064" cy="62.3203" rx="2.46661" ry="2.47884" fill="#F83718"/>
<ellipse cx="2.46661" cy="77.1937" rx="2.46661" ry="2.47884" fill="#F83718"/>
<ellipse cx="17.2694" cy="77.1937" rx="2.46661" ry="2.47884" fill="#F83718"/>
<ellipse cx="32.0643" cy="77.1937" rx="2.46661" ry="2.47884" fill="#F83718"/>
<ellipse cx="46.8651" cy="77.1937" rx="2.46661" ry="2.47884" fill="#F83718"/>
<ellipse cx="61.6639" cy="77.1937" rx="2.46661" ry="2.47884" fill="#F83718"/>
<ellipse cx="76.4647" cy="77.1937" rx="2.46661" ry="2.47884" fill="#F83718"/>
<ellipse cx="91.2674" cy="77.1937" rx="2.46661" ry="2.47884" fill="#F83718"/>
<ellipse cx="106.064" cy="77.1937" rx="2.46661" ry="2.47884" fill="#F83718"/>
<ellipse cx="2.46661" cy="92.0671" rx="2.46661" ry="2.47884" fill="#F83718"/>
<ellipse cx="17.2694" cy="92.0671" rx="2.46661" ry="2.47884" fill="#F83718"/>
<ellipse cx="32.0643" cy="92.0671" rx="2.46661" ry="2.47884" fill="#F83718"/>
<ellipse cx="46.8651" cy="92.0671" rx="2.46661" ry="2.47884" fill="#F83718"/>
<ellipse cx="61.6639" cy="92.0671" rx="2.46661" ry="2.47884" fill="#F83718"/>
<ellipse cx="76.4647" cy="92.0671" rx="2.46661" ry="2.47884" fill="#F83718"/>
<ellipse cx="91.2674" cy="92.0671" rx="2.46661" ry="2.47884" fill="#F83718"/>
<ellipse cx="106.064" cy="92.0671" rx="2.46661" ry="2.47884" fill="#F83718"/>
<ellipse cx="2.46661" cy="106.939" rx="2.46661" ry="2.47884" fill="#F83718"/>
<ellipse cx="17.2694" cy="106.939" rx="2.46661" ry="2.47884" fill="#F83718"/>
<ellipse cx="32.0643" cy="106.939" rx="2.46661" ry="2.47884" fill="#F83718"/>
<ellipse cx="46.8651" cy="106.939" rx="2.46661" ry="2.47884" fill="#F83718"/>
<ellipse cx="61.6639" cy="106.939" rx="2.46661" ry="2.47884" fill="#F83718"/>
<ellipse cx="76.4647" cy="106.939" rx="2.46661" ry="2.47884" fill="#F83718"/>
<ellipse cx="91.2674" cy="106.939" rx="2.46661" ry="2.47884" fill="#F83718"/>
<ellipse cx="106.064" cy="106.939" rx="2.46661" ry="2.47884" fill="#F83718"/>
<ellipse cx="2.46661" cy="121.813" rx="2.46661" ry="2.47884" fill="#F83718"/>
<ellipse cx="17.2694" cy="121.813" rx="2.46661" ry="2.47884" fill="#F83718"/>
<ellipse cx="32.0643" cy="121.813" rx="2.46661" ry="2.47884" fill="#F83718"/>
<ellipse cx="46.8651" cy="121.813" rx="2.46661" ry="2.47884" fill="#F83718"/>
<ellipse cx="61.6639" cy="121.813" rx="2.46661" ry="2.47884" fill="#F83718"/>
<ellipse cx="76.4647" cy="121.813" rx="2.46661" ry="2.47884" fill="#F83718"/>
<ellipse cx="91.2674" cy="121.813" rx="2.46661" ry="2.47884" fill="#F83718"/>
<ellipse cx="106.064" cy="121.813" rx="2.46661" ry="2.47884" fill="#F83718"/>
<ellipse cx="2.46661" cy="136.686" rx="2.46661" ry="2.47884" fill="#F83718"/>
<ellipse cx="17.2694" cy="136.686" rx="2.46661" ry="2.47884" fill="#F83718"/>
<ellipse cx="32.0643" cy="136.686" rx="2.46661" ry="2.47884" fill="#F83718"/>
<ellipse cx="46.8651" cy="136.686" rx="2.46661" ry="2.47884" fill="#F83718"/>
<ellipse cx="61.6639" cy="136.686" rx="2.46661" ry="2.47884" fill="#F83718"/>
<ellipse cx="76.4647" cy="136.686" rx="2.46661" ry="2.47884" fill="#F83718"/>
<ellipse cx="91.2674" cy="136.686" rx="2.46661" ry="2.47884" fill="#F83718"/>
<ellipse cx="106.064" cy="136.686" rx="2.46661" ry="2.47884" fill="#F83718"/>
<ellipse cx="2.46661" cy="151.559" rx="2.46661" ry="2.47884" fill="#F83718"/>
<ellipse cx="17.2694" cy="151.559" rx="2.46661" ry="2.47884" fill="#F83718"/>
<ellipse cx="32.0643" cy="151.559" rx="2.46661" ry="2.47884" fill="#F83718"/>
<ellipse cx="46.8651" cy="151.559" rx="2.46661" ry="2.47884" fill="#F83718"/>
<ellipse cx="61.6639" cy="151.559" rx="2.46661" ry="2.47884" fill="#F83718"/>
<ellipse cx="76.4647" cy="151.559" rx="2.46661" ry="2.47884" fill="#F83718"/>
<ellipse cx="91.2674" cy="151.559" rx="2.46661" ry="2.47884" fill="#F83718"/>
<ellipse cx="106.064" cy="151.559" rx="2.46661" ry="2.47884" fill="#F83718"/>
<ellipse cx="2.46661" cy="166.433" rx="2.46661" ry="2.47884" fill="#F83718"/>
<ellipse cx="17.2694" cy="166.433" rx="2.46661" ry="2.47884" fill="#F83718"/>
<ellipse cx="32.0643" cy="166.433" rx="2.46661" ry="2.47884" fill="#F83718"/>
<ellipse cx="46.8651" cy="166.433" rx="2.46661" ry="2.47884" fill="#F83718"/>
<ellipse cx="61.6639" cy="166.433" rx="2.46661" ry="2.47884" fill="#F83718"/>
<ellipse cx="76.4647" cy="166.433" rx="2.46661" ry="2.47884" fill="#F83718"/>
<ellipse cx="91.2674" cy="166.433" rx="2.46661" ry="2.47884" fill="#F83718"/>
<ellipse cx="106.064" cy="166.433" rx="2.46661" ry="2.47884" fill="#F83718"/>
<ellipse cx="120.271" cy="2.8287" rx="2.46661" ry="2.47884" fill="#F83718"/>
<ellipse cx="135.072" cy="2.8287" rx="2.46661" ry="2.47884" fill="#F83718"/>
<ellipse cx="149.869" cy="2.8287" rx="2.46661" ry="2.47884" fill="#F83718"/>
<ellipse cx="164.672" cy="2.8287" rx="2.46661" ry="2.47884" fill="#F83718"/>
<ellipse cx="120.271" cy="17.7011" rx="2.46661" ry="2.47884" fill="#F83718"/>
<ellipse cx="135.076" cy="17.7011" rx="2.46661" ry="2.47884" fill="#F83718"/>
<ellipse cx="149.869" cy="17.7011" rx="2.46661" ry="2.47884" fill="#F83718"/>
<ellipse cx="164.672" cy="17.7011" rx="2.46661" ry="2.47884" fill="#F83718"/>
<ellipse cx="120.271" cy="32.5755" rx="2.46661" ry="2.47884" fill="#F83718"/>
<ellipse cx="135.076" cy="32.5755" rx="2.46661" ry="2.47884" fill="#F83718"/>
<ellipse cx="149.869" cy="32.5755" rx="2.46661" ry="2.47884" fill="#F83718"/>
<ellipse cx="164.672" cy="32.5755" rx="2.46661" ry="2.47884" fill="#F83718"/>
<ellipse cx="120.271" cy="47.4489" rx="2.46661" ry="2.47884" fill="#F83718"/>
<ellipse cx="135.076" cy="47.4489" rx="2.46661" ry="2.47884" fill="#F83718"/>
<ellipse cx="149.869" cy="47.4489" rx="2.46661" ry="2.47884" fill="#F83718"/>
<ellipse cx="164.672" cy="47.4489" rx="2.46661" ry="2.47884" fill="#F83718"/>
<ellipse cx="120.271" cy="62.3203" rx="2.46661" ry="2.47884" fill="#F83718"/>
<ellipse cx="135.076" cy="62.3203" rx="2.46661" ry="2.47884" fill="#F83718"/>
<ellipse cx="149.869" cy="62.3203" rx="2.46661" ry="2.47884" fill="#F83718"/>
<ellipse cx="164.672" cy="62.3203" rx="2.46661" ry="2.47884" fill="#F83718"/>
<ellipse cx="120.271" cy="77.1937" rx="2.46661" ry="2.47884" fill="#F83718"/>
<ellipse cx="135.076" cy="77.1937" rx="2.46661" ry="2.47884" fill="#F83718"/>
<ellipse cx="149.869" cy="77.1937" rx="2.46661" ry="2.47884" fill="#F83718"/>
<ellipse cx="164.672" cy="77.1937" rx="2.46661" ry="2.47884" fill="#F83718"/>
<ellipse cx="120.271" cy="92.0671" rx="2.46661" ry="2.47884" fill="#F83718"/>
<ellipse cx="135.076" cy="92.0671" rx="2.46661" ry="2.47884" fill="#F83718"/>
<ellipse cx="149.869" cy="92.0671" rx="2.46661" ry="2.47884" fill="#F83718"/>
<ellipse cx="164.672" cy="92.0671" rx="2.46661" ry="2.47884" fill="#F83718"/>
<ellipse cx="120.271" cy="106.939" rx="2.46661" ry="2.47884" fill="#F83718"/>
<ellipse cx="135.076" cy="106.939" rx="2.46661" ry="2.47884" fill="#F83718"/>
<ellipse cx="149.869" cy="106.939" rx="2.46661" ry="2.47884" fill="#F83718"/>
<ellipse cx="164.672" cy="106.939" rx="2.46661" ry="2.47884" fill="#F83718"/>
<ellipse cx="120.271" cy="121.813" rx="2.46661" ry="2.47884" fill="#F83718"/>
<ellipse cx="135.076" cy="121.813" rx="2.46661" ry="2.47884" fill="#F83718"/>
<ellipse cx="149.869" cy="121.813" rx="2.46661" ry="2.47884" fill="#F83718"/>
<ellipse cx="164.672" cy="121.813" rx="2.46661" ry="2.47884" fill="#F83718"/>
<ellipse cx="120.271" cy="136.686" rx="2.46661" ry="2.47884" fill="#F83718"/>
<ellipse cx="135.076" cy="136.686" rx="2.46661" ry="2.47884" fill="#F83718"/>
<ellipse cx="149.869" cy="136.686" rx="2.46661" ry="2.47884" fill="#F83718"/>
<ellipse cx="164.672" cy="136.686" rx="2.46661" ry="2.47884" fill="#F83718"/>
<ellipse cx="120.271" cy="151.559" rx="2.46661" ry="2.47884" fill="#F83718"/>
<ellipse cx="135.076" cy="151.559" rx="2.46661" ry="2.47884" fill="#F83718"/>
<ellipse cx="149.869" cy="151.559" rx="2.46661" ry="2.47884" fill="#F83718"/>
<ellipse cx="164.672" cy="151.559" rx="2.46661" ry="2.47884" fill="#F83718"/>
<ellipse cx="120.271" cy="166.433" rx="2.46661" ry="2.47884" fill="#F83718"/>
<ellipse cx="135.076" cy="166.433" rx="2.46661" ry="2.47884" fill="#F83718"/>
<ellipse cx="149.869" cy="166.433" rx="2.46661" ry="2.47884" fill="#F83718"/>
<ellipse cx="164.672" cy="166.433" rx="2.46661" ry="2.47884" fill="#F83718"/>
</svg>
