<svg width="168" height="170" viewBox="0 0 168 170" fill="none" xmlns="http://www.w3.org/2000/svg">
<ellipse cx="2.46661" cy="3.29647" rx="2.46661" ry="2.47884" fill="white"/>
<ellipse cx="17.2674" cy="3.29647" rx="2.46661" ry="2.47884" fill="white"/>
<ellipse cx="32.0643" cy="3.29647" rx="2.46661" ry="2.47884" fill="white"/>
<ellipse cx="46.8651" cy="3.29647" rx="2.46661" ry="2.47884" fill="white"/>
<ellipse cx="61.6639" cy="3.29647" rx="2.46661" ry="2.47884" fill="white"/>
<ellipse cx="76.4647" cy="3.29647" rx="2.46661" ry="2.47884" fill="white"/>
<ellipse cx="91.2674" cy="3.29647" rx="2.46661" ry="2.47884" fill="white"/>
<ellipse cx="106.064" cy="3.29647" rx="2.46661" ry="2.47884" fill="white"/>
<ellipse cx="2.46661" cy="18.169" rx="2.46661" ry="2.47884" fill="white"/>
<ellipse cx="17.2694" cy="18.1689" rx="2.46661" ry="2.47884" fill="white"/>
<ellipse cx="32.0643" cy="18.1689" rx="2.46661" ry="2.47884" fill="white"/>
<ellipse cx="46.8651" cy="18.169" rx="2.46661" ry="2.47884" fill="white"/>
<ellipse cx="61.6639" cy="18.1689" rx="2.46661" ry="2.47884" fill="white"/>
<ellipse cx="76.4647" cy="18.1689" rx="2.46661" ry="2.47884" fill="white"/>
<ellipse cx="91.2674" cy="18.1689" rx="2.46661" ry="2.47884" fill="white"/>
<ellipse cx="106.064" cy="18.1689" rx="2.46661" ry="2.47884" fill="white"/>
<ellipse cx="2.46661" cy="33.0432" rx="2.46661" ry="2.47884" fill="white"/>
<ellipse cx="17.2694" cy="33.0432" rx="2.46661" ry="2.47884" fill="white"/>
<ellipse cx="32.0643" cy="33.0432" rx="2.46661" ry="2.47884" fill="white"/>
<ellipse cx="46.8651" cy="33.0432" rx="2.46661" ry="2.47884" fill="white"/>
<ellipse cx="61.6639" cy="33.0432" rx="2.46661" ry="2.47884" fill="white"/>
<ellipse cx="76.4647" cy="33.0432" rx="2.46661" ry="2.47884" fill="white"/>
<ellipse cx="91.2674" cy="33.0432" rx="2.46661" ry="2.47884" fill="white"/>
<ellipse cx="106.064" cy="33.0432" rx="2.46661" ry="2.47884" fill="white"/>
<ellipse cx="2.46661" cy="47.9156" rx="2.46661" ry="2.47884" fill="white"/>
<ellipse cx="17.2694" cy="47.9156" rx="2.46661" ry="2.47884" fill="white"/>
<ellipse cx="32.0643" cy="47.9156" rx="2.46661" ry="2.47884" fill="white"/>
<ellipse cx="46.8651" cy="47.9156" rx="2.46661" ry="2.47884" fill="white"/>
<ellipse cx="61.6639" cy="47.9156" rx="2.46661" ry="2.47884" fill="white"/>
<ellipse cx="76.4647" cy="47.9156" rx="2.46661" ry="2.47884" fill="white"/>
<ellipse cx="91.2674" cy="47.9156" rx="2.46661" ry="2.47884" fill="white"/>
<ellipse cx="106.064" cy="47.9156" rx="2.46661" ry="2.47884" fill="white"/>
<ellipse cx="2.46661" cy="62.7879" rx="2.46661" ry="2.47884" fill="white"/>
<ellipse cx="17.2694" cy="62.788" rx="2.46661" ry="2.47884" fill="white"/>
<ellipse cx="32.0643" cy="62.788" rx="2.46661" ry="2.47884" fill="white"/>
<ellipse cx="46.8651" cy="62.7879" rx="2.46661" ry="2.47884" fill="white"/>
<ellipse cx="61.6639" cy="62.788" rx="2.46661" ry="2.47884" fill="white"/>
<ellipse cx="76.4647" cy="62.788" rx="2.46661" ry="2.47884" fill="white"/>
<ellipse cx="91.2674" cy="62.788" rx="2.46661" ry="2.47884" fill="white"/>
<ellipse cx="106.064" cy="62.788" rx="2.46661" ry="2.47884" fill="white"/>
<ellipse cx="2.46661" cy="77.6605" rx="2.46661" ry="2.47884" fill="white"/>
<ellipse cx="17.2694" cy="77.6605" rx="2.46661" ry="2.47884" fill="white"/>
<ellipse cx="32.0643" cy="77.6605" rx="2.46661" ry="2.47884" fill="white"/>
<ellipse cx="46.8651" cy="77.6605" rx="2.46661" ry="2.47884" fill="white"/>
<ellipse cx="61.6639" cy="77.6605" rx="2.46661" ry="2.47884" fill="white"/>
<ellipse cx="76.4647" cy="77.6605" rx="2.46661" ry="2.47884" fill="white"/>
<ellipse cx="91.2674" cy="77.6605" rx="2.46661" ry="2.47884" fill="white"/>
<ellipse cx="106.064" cy="77.6605" rx="2.46661" ry="2.47884" fill="white"/>
<ellipse cx="2.46661" cy="92.5348" rx="2.46661" ry="2.47884" fill="white"/>
<ellipse cx="17.2694" cy="92.5348" rx="2.46661" ry="2.47884" fill="white"/>
<ellipse cx="32.0643" cy="92.5348" rx="2.46661" ry="2.47884" fill="white"/>
<ellipse cx="46.8651" cy="92.5348" rx="2.46661" ry="2.47884" fill="white"/>
<ellipse cx="61.6639" cy="92.5348" rx="2.46661" ry="2.47884" fill="white"/>
<ellipse cx="76.4647" cy="92.5348" rx="2.46661" ry="2.47884" fill="white"/>
<ellipse cx="91.2674" cy="92.5348" rx="2.46661" ry="2.47884" fill="white"/>
<ellipse cx="106.064" cy="92.5348" rx="2.46661" ry="2.47884" fill="white"/>
<ellipse cx="2.46661" cy="107.407" rx="2.46661" ry="2.47884" fill="white"/>
<ellipse cx="17.2694" cy="107.407" rx="2.46661" ry="2.47884" fill="white"/>
<ellipse cx="32.0643" cy="107.407" rx="2.46661" ry="2.47884" fill="white"/>
<ellipse cx="46.8651" cy="107.407" rx="2.46661" ry="2.47884" fill="white"/>
<ellipse cx="61.6639" cy="107.407" rx="2.46661" ry="2.47884" fill="white"/>
<ellipse cx="76.4647" cy="107.407" rx="2.46661" ry="2.47884" fill="white"/>
<ellipse cx="91.2674" cy="107.407" rx="2.46661" ry="2.47884" fill="white"/>
<ellipse cx="106.064" cy="107.407" rx="2.46661" ry="2.47884" fill="white"/>
<ellipse cx="2.46661" cy="122.282" rx="2.46661" ry="2.47884" fill="white"/>
<ellipse cx="17.2694" cy="122.282" rx="2.46661" ry="2.47884" fill="white"/>
<ellipse cx="32.0643" cy="122.282" rx="2.46661" ry="2.47884" fill="white"/>
<ellipse cx="46.8651" cy="122.282" rx="2.46661" ry="2.47884" fill="white"/>
<ellipse cx="61.6639" cy="122.282" rx="2.46661" ry="2.47884" fill="white"/>
<ellipse cx="76.4647" cy="122.282" rx="2.46661" ry="2.47884" fill="white"/>
<ellipse cx="91.2674" cy="122.282" rx="2.46661" ry="2.47884" fill="white"/>
<ellipse cx="106.064" cy="122.282" rx="2.46661" ry="2.47884" fill="white"/>
<ellipse cx="2.46661" cy="137.154" rx="2.46661" ry="2.47884" fill="white"/>
<ellipse cx="17.2694" cy="137.154" rx="2.46661" ry="2.47884" fill="white"/>
<ellipse cx="32.0643" cy="137.154" rx="2.46661" ry="2.47884" fill="white"/>
<ellipse cx="46.8651" cy="137.154" rx="2.46661" ry="2.47884" fill="white"/>
<ellipse cx="61.6639" cy="137.154" rx="2.46661" ry="2.47884" fill="white"/>
<ellipse cx="76.4647" cy="137.154" rx="2.46661" ry="2.47884" fill="white"/>
<ellipse cx="91.2674" cy="137.154" rx="2.46661" ry="2.47884" fill="white"/>
<ellipse cx="106.064" cy="137.154" rx="2.46661" ry="2.47884" fill="white"/>
<ellipse cx="2.46661" cy="152.027" rx="2.46661" ry="2.47884" fill="white"/>
<ellipse cx="17.2694" cy="152.026" rx="2.46661" ry="2.47884" fill="white"/>
<ellipse cx="32.0643" cy="152.026" rx="2.46661" ry="2.47884" fill="white"/>
<ellipse cx="46.8651" cy="152.027" rx="2.46661" ry="2.47884" fill="white"/>
<ellipse cx="61.6639" cy="152.026" rx="2.46661" ry="2.47884" fill="white"/>
<ellipse cx="76.4647" cy="152.026" rx="2.46661" ry="2.47884" fill="white"/>
<ellipse cx="91.2674" cy="152.026" rx="2.46661" ry="2.47884" fill="white"/>
<ellipse cx="106.064" cy="152.026" rx="2.46661" ry="2.47884" fill="white"/>
<ellipse cx="2.46661" cy="166.901" rx="2.46661" ry="2.47884" fill="white"/>
<ellipse cx="17.2694" cy="166.901" rx="2.46661" ry="2.47884" fill="white"/>
<ellipse cx="32.0643" cy="166.901" rx="2.46661" ry="2.47884" fill="white"/>
<ellipse cx="46.8651" cy="166.901" rx="2.46661" ry="2.47884" fill="white"/>
<ellipse cx="61.6639" cy="166.901" rx="2.46661" ry="2.47884" fill="white"/>
<ellipse cx="76.4647" cy="166.901" rx="2.46661" ry="2.47884" fill="white"/>
<ellipse cx="91.2674" cy="166.901" rx="2.46661" ry="2.47884" fill="white"/>
<ellipse cx="106.064" cy="166.901" rx="2.46661" ry="2.47884" fill="white"/>
<ellipse cx="120.271" cy="3.29647" rx="2.46661" ry="2.47884" fill="white"/>
<ellipse cx="135.072" cy="3.29647" rx="2.46661" ry="2.47884" fill="white"/>
<ellipse cx="149.869" cy="3.29647" rx="2.46661" ry="2.47884" fill="white"/>
<ellipse cx="164.672" cy="3.29647" rx="2.46661" ry="2.47884" fill="white"/>
<ellipse cx="120.271" cy="18.1689" rx="2.46661" ry="2.47884" fill="white"/>
<ellipse cx="135.076" cy="18.1689" rx="2.46661" ry="2.47884" fill="white"/>
<ellipse cx="149.869" cy="18.1689" rx="2.46661" ry="2.47884" fill="white"/>
<ellipse cx="164.672" cy="18.1689" rx="2.46661" ry="2.47884" fill="white"/>
<ellipse cx="120.271" cy="33.0432" rx="2.46661" ry="2.47884" fill="white"/>
<ellipse cx="135.076" cy="33.0432" rx="2.46661" ry="2.47884" fill="white"/>
<ellipse cx="149.869" cy="33.0432" rx="2.46661" ry="2.47884" fill="white"/>
<ellipse cx="164.672" cy="33.0432" rx="2.46661" ry="2.47884" fill="white"/>
<ellipse cx="120.271" cy="47.9156" rx="2.46661" ry="2.47884" fill="white"/>
<ellipse cx="135.076" cy="47.9156" rx="2.46661" ry="2.47884" fill="white"/>
<ellipse cx="149.869" cy="47.9156" rx="2.46661" ry="2.47884" fill="white"/>
<ellipse cx="164.672" cy="47.9156" rx="2.46661" ry="2.47884" fill="white"/>
<ellipse cx="120.271" cy="62.788" rx="2.46661" ry="2.47884" fill="white"/>
<ellipse cx="135.076" cy="62.788" rx="2.46661" ry="2.47884" fill="white"/>
<ellipse cx="149.869" cy="62.788" rx="2.46661" ry="2.47884" fill="white"/>
<ellipse cx="164.672" cy="62.788" rx="2.46661" ry="2.47884" fill="white"/>
<ellipse cx="120.271" cy="77.6605" rx="2.46661" ry="2.47884" fill="white"/>
<ellipse cx="135.076" cy="77.6605" rx="2.46661" ry="2.47884" fill="white"/>
<ellipse cx="149.869" cy="77.6605" rx="2.46661" ry="2.47884" fill="white"/>
<ellipse cx="164.672" cy="77.6605" rx="2.46661" ry="2.47884" fill="white"/>
<ellipse cx="120.271" cy="92.5348" rx="2.46661" ry="2.47884" fill="white"/>
<ellipse cx="135.076" cy="92.5348" rx="2.46661" ry="2.47884" fill="white"/>
<ellipse cx="149.869" cy="92.5348" rx="2.46661" ry="2.47884" fill="white"/>
<ellipse cx="164.672" cy="92.5348" rx="2.46661" ry="2.47884" fill="white"/>
<ellipse cx="120.271" cy="107.407" rx="2.46661" ry="2.47884" fill="white"/>
<ellipse cx="135.076" cy="107.407" rx="2.46661" ry="2.47884" fill="white"/>
<ellipse cx="149.869" cy="107.407" rx="2.46661" ry="2.47884" fill="white"/>
<ellipse cx="164.672" cy="107.407" rx="2.46661" ry="2.47884" fill="white"/>
<ellipse cx="120.271" cy="122.282" rx="2.46661" ry="2.47884" fill="white"/>
<ellipse cx="135.076" cy="122.282" rx="2.46661" ry="2.47884" fill="white"/>
<ellipse cx="149.869" cy="122.282" rx="2.46661" ry="2.47884" fill="white"/>
<ellipse cx="164.672" cy="122.282" rx="2.46661" ry="2.47884" fill="white"/>
<ellipse cx="120.271" cy="137.154" rx="2.46661" ry="2.47884" fill="white"/>
<ellipse cx="135.076" cy="137.154" rx="2.46661" ry="2.47884" fill="white"/>
<ellipse cx="149.869" cy="137.154" rx="2.46661" ry="2.47884" fill="white"/>
<ellipse cx="164.672" cy="137.154" rx="2.46661" ry="2.47884" fill="white"/>
<ellipse cx="120.271" cy="152.026" rx="2.46661" ry="2.47884" fill="white"/>
<ellipse cx="135.076" cy="152.026" rx="2.46661" ry="2.47884" fill="white"/>
<ellipse cx="149.869" cy="152.026" rx="2.46661" ry="2.47884" fill="white"/>
<ellipse cx="164.672" cy="152.026" rx="2.46661" ry="2.47884" fill="white"/>
<ellipse cx="120.271" cy="166.901" rx="2.46661" ry="2.47884" fill="white"/>
<ellipse cx="135.076" cy="166.901" rx="2.46661" ry="2.47884" fill="white"/>
<ellipse cx="149.869" cy="166.901" rx="2.46661" ry="2.47884" fill="white"/>
<ellipse cx="164.672" cy="166.901" rx="2.46661" ry="2.47884" fill="white"/>
</svg>
